<svg version="1.1" id="Layer_1" class="car-drawing" xmlns="http://www.w3.org/2000/svg" xmlns:xlink="http://www.w3.org/1999/xlink" x="0px" y="0px"
	 width="100%" viewBox="0 0 1536 1024" enable-background="new 0 0 1536 1024" xml:space="preserve">
<path fill="none" opacity="1.000000" stroke="#FFFFFF" stroke-linecap="round" stroke-linejoin="round" stroke-width="3.000000"
	d="
M642.500000,417.499969 
	C639.333313,418.833313 636.214966,420.299530 632.989685,421.471588 
	C626.772766,423.730713 624.375183,422.204315 621.429565,416.033630 
	C615.329834,403.255463 608.988159,390.586151 602.456787,378.022461 
	C595.819031,365.254150 588.916199,352.621033 581.977295,340.012482 
	C574.630493,326.662811 567.534729,313.128235 558.910522,300.561401 
	C550.334656,288.065033 537.171387,282.539185 523.001160,278.995361 
	C512.157288,276.283447 501.065491,275.317749 490.016968,273.870422 
	C467.732056,270.951202 445.367523,270.395569 423.003784,271.117035 
	C391.196747,272.143097 361.527527,280.799927 334.479584,297.967804 
	C317.335510,308.849487 300.387939,320.017578 284.046295,332.062775 
	C277.208221,337.103027 271.374207,343.369110 265.565643,349.561584 
	C264.034058,351.194397 262.720337,353.173218 261.948120,355.482666 
	C259.925262,361.532562 261.365814,365.373657 267.524536,366.901062 
	C277.098358,369.275452 286.805084,371.150848 296.505981,372.968079 
	C315.687164,376.561188 334.892822,380.005341 354.028503,383.858429 
	C363.148224,385.694794 372.345490,387.267181 381.494293,389.029633 
	C382.038330,389.134430 382.500000,389.666656 383.000000,390.000000 
"/>
<path fill="none" opacity="1.000000" stroke="#FFFFFF" stroke-linecap="round" stroke-linejoin="round" stroke-width="3.000000"
	d="
M1338.000000,658.000000 
	C1342.676147,667.321960 1346.727539,676.755432 1347.082764,687.497253 
	C1347.427734,697.924133 1343.844482,707.003052 1338.455566,715.471680 
	C1325.700195,735.516968 1306.664429,748.011414 1286.006104,758.511963 
	C1257.943359,772.776123 1228.105957,781.578613 1197.534790,788.650452 
	C1161.380493,797.014038 1124.692017,801.785645 1087.977417,806.317383 
	C1067.121826,808.891663 1046.092529,809.211304 1024.986816,807.681946 
	C1001.603210,805.987488 978.867493,801.007263 955.997803,796.511108 
	C932.007568,791.794678 907.998352,787.175049 884.002075,782.489258 
	C880.986877,781.900513 877.932251,781.379150 875.016113,780.449524 
	C870.803589,779.106567 868.941406,775.482605 870.543823,771.517700 
	C874.069519,762.794128 878.056213,754.252380 881.432068,745.473877 
	C884.329712,737.938965 886.476074,730.325256 887.503784,722.062683 
	C888.422974,714.672180 889.432373,707.284668 888.841309,700.012878 
	C886.919006,676.361633 885.950012,652.522400 877.067322,629.973511 
	C872.203003,617.625244 866.351196,605.765747 859.252808,594.657959 
	C856.807312,590.831238 851.451965,588.898376 847.510132,585.986267 
	C839.680420,580.201843 831.227722,575.609436 821.994507,572.516296 
	C816.459778,570.662231 814.702087,572.179077 815.506958,577.999023 
	C816.982605,588.669067 818.556580,599.325928 819.945129,610.007141 
	C820.180847,611.820740 821.105591,613.198059 822.054260,614.459167 
	C826.262390,620.053345 830.666687,625.500000 835.000000,631.000000 
"/>
<path fill="none" opacity="1.000000" stroke="#FFFFFF" stroke-linecap="round" stroke-linejoin="round" stroke-width="3.000000"
	d="
M157.000000,287.000000 
	C165.660995,284.336334 174.631668,283.100464 183.512390,281.571960 
	C208.232880,277.317169 233.058212,273.775177 257.990326,270.915710 
	C274.639252,269.006195 291.299164,267.264435 308.004486,266.062561 
	C323.650116,264.936890 339.365417,263.300873 354.991119,263.786133 
	C371.083984,264.285980 386.303802,262.069427 401.558777,257.183533 
	C413.199463,253.455185 425.392426,251.563416 437.478058,249.378616 
	C465.464294,244.319351 493.733032,241.861115 522.011475,239.646866 
	C537.459167,238.437286 552.984314,237.904984 568.494202,237.341263 
	C590.995911,236.523407 613.492859,235.713013 635.999084,236.058670 
	C679.459045,236.726135 722.707458,239.954407 765.500977,247.994888 
	C777.949219,250.333786 790.366394,252.880600 802.481750,256.560120 
	C821.167236,262.234985 838.822205,270.200043 855.542419,280.430664 
	C889.687134,301.322784 921.364563,325.618073 953.015259,349.980194 
	C961.414062,356.444946 970.143860,362.484131 978.465027,369.044342 
	C989.867004,378.033356 1003.211609,382.455597 1017.023438,385.389618 
	C1035.595459,389.334808 1054.398438,392.188477 1072.984619,396.073517 
	C1100.372070,401.798401 1127.514771,408.584106 1154.506714,415.975555 
	C1178.531616,422.554535 1202.247192,430.076447 1225.488647,439.029388 
	C1251.248169,448.952332 1276.334839,460.325745 1299.453491,475.570587 
	C1305.870483,479.802124 1311.919678,484.623077 1317.524902,489.973877 
	C1328.263672,500.225159 1332.472900,513.075867 1333.028931,527.498901 
	C1333.080200,528.827881 1333.425903,530.355347 1333.337036,531.487183 
	C1332.837036,537.850098 1335.822998,540.967346 1341.381470,543.737793 
	C1346.470825,546.274353 1351.770264,549.573059 1353.565308,555.981689 
	C1354.185547,558.196228 1354.145630,560.112915 1352.990356,561.994080 
	C1346.535400,572.503906 1339.133545,582.429749 1328.877930,589.318298 
	C1320.868042,594.698486 1311.548584,597.956482 1302.510864,601.527649 
	C1275.434082,612.226562 1247.558594,620.467041 1219.451904,627.815796 
	C1206.932129,631.089294 1193.980469,632.852356 1181.005493,634.059265 
	C1165.815308,635.472229 1150.695068,637.737183 1135.486572,638.809753 
	C1129.014771,639.266113 1122.456543,639.606750 1116.017700,640.194519 
	C1098.698853,641.775452 1081.323120,641.820251 1063.989746,642.823792 
	C1055.214844,643.331787 1046.293213,642.375488 1037.506958,641.434753 
	C1000.197388,637.439819 964.815491,624.909546 928.510742,616.453918 
	C911.781067,612.557617 895.167908,608.161621 878.495056,604.019897 
	C877.867126,603.863953 877.166687,604.000000 876.500000,604.000000 
"/>
<path fill="none" opacity="1.000000" stroke="#FFFFFF" stroke-linecap="round" stroke-linejoin="round" stroke-width="3.000000"
	d="
M1338.000000,707.000000 
	C1323.206177,727.650574 1302.782715,740.746582 1280.040771,751.089661 
	C1255.122803,762.422485 1229.004517,769.868713 1202.458618,775.815063 
	C1190.948975,778.393311 1179.261475,780.465210 1167.520020,782.140503 
	C1154.699951,783.969604 1141.889648,785.712524 1129.010132,787.093994 
	C1118.018921,788.272949 1107.011353,789.165222 1096.019897,790.209167 
	C1078.846436,791.840149 1061.691406,792.017822 1044.500000,791.987671 
	C1025.920776,791.955078 1007.608154,789.403992 989.509338,785.457153 
	C955.265320,777.989441 921.950195,767.336731 889.036560,755.399109 
	C887.886658,754.982056 886.073669,755.883606 885.500000,754.000000 
"/>
<path fill="none" opacity="1.000000" stroke="#FFFFFF" stroke-linecap="round" stroke-linejoin="round" stroke-width="3.000000"
	d="
M835.000000,565.500000 
	C830.811707,566.412598 827.594910,563.636597 824.031738,562.408020 
	C814.269592,559.042175 804.162109,556.929504 794.005920,557.212158 
	C779.587708,557.613342 765.667664,561.128357 753.003052,568.505249 
	C734.703552,579.164185 720.744141,594.021301 711.598694,613.047424 
	C704.880798,627.023376 700.949829,641.799927 699.861328,657.490356 
	C697.820984,686.900696 704.852539,713.630981 722.067444,737.451233 
	C736.765198,757.788574 756.442322,771.357483 781.019104,776.915649 
	C811.122681,783.723694 837.358154,774.998596 860.483948,755.480957 
	C870.258545,747.231506 877.644043,737.012207 884.014893,726.008606 
	C884.608765,724.982910 884.641113,723.307800 886.500000,723.500000 
"/>
<path fill="none" opacity="1.000000" stroke="#FFFFFF" stroke-linecap="round" stroke-linejoin="round" stroke-width="3.000000"
	d="
M505.000000,402.500000 
	C428.147797,389.109833 351.945190,372.443207 275.087860,357.680511 
	C276.313782,352.547760 278.276337,348.740265 281.482056,345.482330 
	C292.082397,334.709351 304.697540,326.540649 317.030609,318.044434 
	C334.302948,306.145569 352.051331,295.087189 371.979980,287.944122 
	C383.045807,283.977753 394.277893,281.153259 405.984650,279.861053 
	C410.200287,279.395691 414.292480,278.645264 417.958252,279.389954 
	C402.341858,312.118073 392.488037,346.319855 391.750366,384.706085 
	C390.845703,386.765015 386.712585,387.574738 383.853424,389.812714 
	C370.013519,400.645599 362.892120,414.297150 362.361969,431.995880 
	C361.839355,449.443726 362.382477,466.690643 364.839752,484.022705 
	C368.215576,507.833984 375.723816,530.214661 385.486206,552.006165 
	C392.141327,566.861694 403.507721,576.084961 419.000061,580.499756 
	C449.999908,589.333679 481.008026,598.138611 511.997040,607.010376 
	C531.013062,612.454407 549.999512,618.001587 569.000122,623.499573 
	C589.166260,629.334778 609.331848,635.171875 629.510315,640.963989 
	C629.928101,641.083862 630.500000,640.666626 631.000000,640.500000 
"/>
<path fill="none" opacity="1.000000" stroke="#FFFFFF" stroke-linecap="round" stroke-linejoin="round" stroke-width="3.000000"
	d="
M272.000000,540.500000 
	C271.666656,535.166687 271.157928,529.837463 271.032227,524.499268 
	C270.623322,507.132965 268.607880,490.026459 261.401978,474.044189 
	C257.395050,465.157135 251.859924,457.186005 244.029083,450.963409 
	C232.469131,441.777496 215.684921,443.294342 204.975479,452.972870 
	C194.899780,462.078674 189.462524,473.765533 186.074020,486.519653 
	C183.992249,494.355316 182.768265,502.372467 181.791290,510.474823 
	C180.860962,518.190247 180.549988,525.898743 181.155594,533.487610 
	C182.785110,553.907104 186.033707,573.969116 197.945145,591.537170 
	C202.875656,598.809204 208.961166,604.629700 217.030197,607.926086 
	C228.950592,612.795837 239.487854,609.172974 248.439529,600.934326 
	C260.954712,589.415894 266.711029,574.233948 269.930267,557.986206 
	C271.035828,552.406433 271.333344,546.666687 272.000000,541.000000 
"/>
<path fill="none" opacity="1.000000" stroke="#FFFFFF" stroke-linecap="round" stroke-linejoin="round" stroke-width="3.000000"
	d="
M819.500000,268.500000 
	C819.236023,265.955688 816.951294,266.693481 815.565247,265.887787 
	C805.879272,260.257751 795.122314,260.384155 784.503174,259.463531 
	C766.597046,257.911163 748.801147,260.175476 731.015137,261.250519 
	C719.181152,261.965790 707.303406,263.364380 695.471924,264.762146 
	C685.999573,265.881256 676.464172,266.835236 667.019592,268.141846 
	C655.307434,269.762115 643.616577,271.679443 631.955078,273.746490 
	C621.984802,275.513794 611.965210,277.158844 602.013794,279.071716 
	C594.239807,280.566010 586.351196,281.788696 578.999573,284.998962 
	C573.008057,287.615326 571.647949,290.855743 574.001587,296.999390 
	C578.707153,309.282043 586.046448,320.161255 592.543335,331.475128 
	C603.887878,351.231049 615.589661,370.781708 626.954285,390.526337 
	C631.282166,398.045441 638.325928,403.577545 641.969971,411.513794 
	C644.977905,418.064880 650.533875,421.764709 656.536133,424.931488 
	C658.301331,425.862793 660.500000,427.132568 662.500000,425.000000 
"/>
<path fill="none" opacity="1.000000" stroke="#FFFFFF" stroke-linecap="round" stroke-linejoin="round" stroke-width="3.000000"
	d="
M983.000000,384.000000 
	C978.447449,375.441284 970.338074,370.607544 962.986572,365.017639 
	C939.689514,347.303223 916.453125,329.505402 892.961182,312.052277 
	C874.941772,298.665009 856.503967,285.852081 836.496460,275.506836 
	C829.435120,271.855652 822.168091,269.814178 814.056152,268.618866 
	C792.876404,265.497833 771.688782,265.704712 750.505798,266.232849 
	C740.197327,266.489838 729.778748,267.227844 719.473389,268.828796 
	C715.409241,269.460205 711.163147,269.621765 706.996521,269.956604 
	C698.454224,270.642975 689.981995,271.977234 681.480469,272.797363 
	C672.940186,273.621246 664.500916,275.047455 656.015991,276.126038 
	C645.781677,277.427002 635.651367,279.586456 625.504150,281.521881 
	C614.652405,283.591644 603.848877,285.916748 592.989380,287.942993 
	C590.178467,288.467499 587.561890,289.406891 585.017456,290.539215 
	C580.526794,292.537628 580.009338,294.360077 581.988770,299.004791 
	C585.975891,308.360626 590.977722,317.203278 596.064575,325.962494 
	C606.011414,343.090179 616.229065,360.063599 626.544373,376.972931 
	C631.621643,385.295807 636.892090,393.531647 642.596619,401.430206 
	C646.395630,406.690247 648.731628,412.894257 653.477051,417.523499 
	C659.084717,422.993958 664.886841,427.199463 673.508911,426.636475 
	C684.639038,425.909790 695.920471,426.950287 706.969055,425.721558 
	C714.206543,424.916718 721.858276,426.597717 728.750000,423.000000 
"/>
<path fill="none" opacity="1.000000" stroke="#FFFFFF" stroke-linecap="round" stroke-linejoin="round" stroke-width="3.000000"
	d="
M304.000000,589.000000 
	C318.500000,592.666687 333.032898,596.208801 347.492889,600.026978 
	C374.233429,607.087891 400.934753,614.280396 427.544434,621.843689 
	C450.887909,628.478699 474.224915,635.124390 497.540649,641.859253 
	C517.912292,647.743713 538.167419,654.020447 558.545532,659.840515 
	C593.135620,669.719421 627.636536,679.869507 662.007690,690.474976 
	C664.782532,691.331238 667.666687,691.833374 670.500000,692.500000 
"/>
<path fill="none" opacity="1.000000" stroke="#FFFFFF" stroke-linecap="round" stroke-linejoin="round" stroke-width="3.000000"
	d="
M688.500000,711.500000 
	C682.451843,711.733459 676.702026,714.140503 670.483643,713.791382 
	C669.263916,713.723022 667.838684,714.019531 666.499207,713.502075 
	C649.465027,706.920837 631.932861,701.857666 614.495544,696.514587 
	C573.009399,683.802551 531.476074,671.244324 490.008698,658.471741 
	C463.945587,650.443909 437.717346,642.997437 411.532074,635.389587 
	C377.804565,625.590576 343.854767,616.770752 309.485901,609.567200 
	C307.729309,609.198975 305.567932,608.908630 304.007538,610.507324 
	C296.461212,618.239136 286.061249,619.254395 276.467285,621.880493 
	C267.218964,624.411987 257.516205,623.858337 247.999481,624.492126 
	C238.554932,625.121155 229.508179,624.512451 220.414169,620.705017 
	C207.835724,615.438660 198.351654,606.971802 191.080475,595.946899 
	C180.738663,580.266174 176.728882,562.476318 174.953751,544.004456 
	C173.260635,526.385742 173.989914,508.913849 176.990356,491.498352 
	C178.558670,482.395294 180.614990,473.114990 184.787537,465.150635 
	C192.981766,449.509918 203.583191,435.515900 221.489517,429.468964 
	C221.740173,429.384338 221.833328,428.833344 221.999985,428.500000 
"/>
<path fill="none" opacity="1.000000" stroke="#FFFFFF" stroke-linecap="round" stroke-linejoin="round" stroke-width="3.000000"
	d="
M679.000000,615.000000 
	C673.436340,615.780457 668.931580,612.468445 664.038574,610.881042 
	C654.416931,607.759521 644.720337,604.784302 635.477295,600.549561 
	C631.630981,598.787415 629.183350,600.712158 629.033997,605.501038 
	C628.793823,613.203796 629.360596,620.869141 630.472229,628.504028 
	C631.124207,632.981873 631.552307,637.494995 631.982666,642.001648 
	C632.301208,645.337708 629.978638,647.369873 626.999939,646.500305 
	C600.166748,638.666443 573.339783,630.811035 546.498108,623.006470 
	C521.173584,615.643005 495.825897,608.358887 470.502502,600.991394 
	C452.322998,595.702271 434.276764,589.910583 415.963318,585.140869 
	C402.594269,581.658936 393.796631,573.389587 386.951416,562.029297 
	C381.171814,552.437439 377.837555,541.878174 373.998169,531.500671 
	C372.704224,528.003357 370.412933,526.396057 366.545868,525.333130 
	C344.631744,519.309875 322.500244,514.165771 300.500885,508.496613 
	C298.660889,508.022430 296.833344,507.500000 295.000000,507.000000 
"/>
<path fill="none" opacity="1.000000" stroke="#FFFFFF" stroke-linecap="round" stroke-linejoin="round" stroke-width="3.000000"
	d="
M692.500000,427.500000 
	C696.026550,432.161835 701.551575,433.502533 706.535828,435.406158 
	C725.963196,442.825867 746.051147,448.225403 766.017822,453.937683 
	C793.499451,461.799927 820.959656,469.768494 847.961304,479.111816 
	C886.138062,492.322144 923.712952,507.151337 959.973450,525.053772 
	C985.719788,537.765137 1011.033081,551.309631 1034.471802,568.039490 
	C1038.794189,571.124756 1043.424316,574.018494 1045.521240,578.500000 
	C1052.324585,578.500000 1058.665649,578.370972 1064.999023,578.538940 
	C1070.503906,578.684875 1075.995850,579.328430 1081.500732,579.469482 
	C1097.832031,579.887817 1114.167358,580.447144 1130.499756,580.401184 
	C1141.361816,580.370605 1152.160400,581.314331 1162.998657,581.559204 
	C1174.280151,581.814026 1185.104736,579.220825 1195.995605,576.978394 
	C1212.206787,573.640442 1228.293213,569.813110 1244.010010,564.529663 
	C1251.952881,561.859619 1260.062744,559.681885 1267.983521,556.951965 
	C1277.054810,553.825562 1285.963257,550.229187 1295.012207,547.034729 
	C1301.634033,544.697083 1306.177124,540.683228 1309.130615,534.058228 
	C1313.981812,523.176636 1319.666626,512.666626 1325.000000,501.999969 
"/>
<path fill="none" opacity="1.000000" stroke="#FFFFFF" stroke-linecap="round" stroke-linejoin="round" stroke-width="3.000000"
	d="
M431.500000,438.499969 
	C452.666656,442.999969 473.817291,447.577240 495.004211,451.979675 
	C519.486084,457.066833 544.071838,461.677734 568.474182,467.115784 
	C584.173340,470.614349 599.975342,473.671661 615.557983,477.780029 
	C621.546204,479.358765 627.762939,480.705536 634.000000,481.500000 
"/>
<path fill="none" opacity="1.000000" stroke="#FFFFFF" stroke-linecap="round" stroke-linejoin="round" stroke-width="3.000000"
	d="
M683.000000,675.500000 
	C685.044739,678.601624 683.974731,682.189453 684.387939,685.513916 
	C689.679138,728.081238 710.169617,760.179443 748.461487,780.572266 
	C766.227417,790.033630 785.004578,794.838013 804.998352,794.421753 
	C826.813721,793.967651 847.097473,787.939514 865.505371,776.008240 
	C866.631165,775.278503 867.833313,774.666626 869.000000,774.000000 
"/>
<path fill="none" opacity="1.000000" stroke="#FFFFFF" stroke-linecap="round" stroke-linejoin="round" stroke-width="3.000000"
	d="
M1349.500000,610.500000 
	C1349.958252,615.097168 1347.039795,618.605530 1345.417847,622.465454 
	C1341.164795,632.587097 1340.190796,643.336670 1338.277954,653.960022 
	C1337.425171,658.696594 1334.469971,663.179626 1331.934448,667.461182 
	C1327.185669,675.479980 1322.213135,683.306396 1315.658569,690.151794 
	C1312.440430,693.512573 1310.996704,698.193848 1306.641724,701.205017 
	C1300.751465,705.277893 1294.751953,709.118469 1288.467285,712.438171 
	C1269.198120,722.616455 1249.440430,731.671326 1228.516846,738.055359 
	C1216.021973,741.867676 1203.456055,745.150146 1190.509766,747.066284 
	C1181.673706,748.374146 1173.033081,751.000610 1164.000000,750.981995 
	C1163.160400,750.980225 1162.194214,751.362061 1161.296509,750.336365 
	C1160.203613,747.629639 1161.423950,744.967102 1162.554321,742.525146 
	C1167.595825,731.633850 1172.732910,720.783875 1178.036133,710.017822 
	C1181.427734,703.132751 1184.999268,696.304504 1188.295410,689.402283 
	C1192.565186,680.461365 1199.592407,676.372681 1208.492065,673.970764 
	C1231.483887,667.765503 1253.956299,660.097351 1276.075806,651.188293 
	C1289.326050,645.851440 1302.173950,639.621277 1315.478027,634.443481 
	C1316.973999,633.861267 1318.166626,632.500000 1319.500000,631.500000 
"/>
<path fill="none" opacity="1.000000" stroke="#FFFFFF" stroke-linecap="round" stroke-linejoin="round" stroke-width="3.000000"
	d="
M993.000000,379.000000 
	C991.250427,382.133972 988.376343,383.143463 985.028015,384.098175 
	C964.975403,389.815796 944.433289,393.291595 923.957703,396.749603 
	C909.036194,399.269592 894.436340,403.211243 879.498901,405.492615 
	C864.003967,407.859161 848.517822,410.293976 832.994995,412.464050 
	C817.517883,414.627747 801.980286,416.360138 786.505493,418.538879 
	C770.712952,420.762390 754.860046,422.403015 738.996765,423.967499 
	C735.852356,424.277588 732.666687,426.259125 729.500000,424.000000 
"/>
<path fill="none" opacity="1.000000" stroke="#FFFFFF" stroke-linecap="round" stroke-linejoin="round" stroke-width="3.000000"
	d="
M582.000000,391.500000 
	C583.460388,390.058746 582.945190,388.214478 582.991455,386.499756 
	C583.131348,381.319733 582.473694,376.082794 584.009399,371.002838 
	C585.180359,367.129425 583.890137,363.845032 582.037109,360.479584 
	C573.430725,344.848633 564.960022,329.153442 555.564941,313.959839 
	C547.104065,300.277008 535.164612,292.115173 519.505493,288.972626 
	C507.891449,286.641876 496.277985,284.443542 484.513489,282.897308 
	C470.379944,281.039734 456.283569,279.303741 442.005890,278.824463 
	C436.862671,278.651825 431.681641,277.911682 426.501709,278.059479 
	C424.170441,278.126038 421.601532,277.044159 419.500000,279.000000 
"/>
<path fill="none" opacity="1.000000" stroke="#FFFFFF" stroke-linecap="round" stroke-linejoin="round" stroke-width="3.000000"
	d="
M372.500000,265.000000 
	C370.057404,268.452881 365.698883,268.401245 362.465057,270.444702 
	C360.659454,271.585663 358.406464,271.996307 356.518280,273.033264 
	C351.658630,275.702026 347.032745,277.471893 340.966888,276.798096 
	C333.942444,276.017822 326.652496,277.351013 319.502960,278.031158 
	C304.826447,279.427399 290.144531,280.813110 275.505341,282.545227 
	C255.225189,284.944733 235.091614,288.377380 215.008698,292.047607 
	C201.795990,294.462311 188.677032,297.386658 175.489563,299.946228 
	C173.352280,300.361053 171.389694,301.002411 169.500000,302.000000 
"/>
<path fill="none" opacity="1.000000" stroke="#FFFFFF" stroke-linecap="round" stroke-linejoin="round" stroke-width="2.000000"
	d="
M1275.000000,501.000000 
	C1257.877197,486.002136 1239.571167,472.552704 1219.948486,461.088287 
	C1185.526123,440.977203 1149.284912,424.852905 1110.994995,413.516815 
	C1108.866943,412.886780 1106.666626,412.500000 1104.500000,412.000000 
"/>
<path fill="none" opacity="1.000000" stroke="#FFFFFF" stroke-linecap="round" stroke-linejoin="round" stroke-width="2.000000"
	d="
M803.000000,715.500000 
	C792.032593,720.932373 783.640198,729.732666 774.599731,737.614441 
	C770.628479,741.076660 766.122925,744.027100 762.940735,748.457458 
	C760.211609,752.257141 760.101990,753.743835 764.015137,755.973450 
	C777.518799,763.667847 791.965576,766.445496 807.513367,765.161682 
	C815.677124,764.487610 823.374756,762.606262 830.988525,759.966858 
	C833.641663,759.046997 836.621338,758.341064 837.795532,754.594421 
	C826.297852,742.030457 813.495483,730.435547 804.000000,716.000000 
"/>
<path fill="none" opacity="1.000000" stroke="#FFFFFF" stroke-linecap="round" stroke-linejoin="round" stroke-width="3.000000"
	d="
M855.500000,591.000000 
	C855.312866,585.631470 851.374146,582.174988 848.382874,578.597900 
	C834.660339,562.187988 818.448547,548.839783 799.068420,539.360168 
	C793.661438,536.715393 788.591248,537.524170 783.521179,538.599915 
	C761.372620,543.299133 741.775940,553.331116 725.066772,568.573242 
	C715.964172,576.876648 708.464661,586.751221 702.606628,597.557800 
	C693.232178,614.850952 686.875549,633.226257 684.862610,652.986023 
	C684.578308,655.776794 685.505676,659.099365 683.000000,661.500000 
"/>
<path fill="none" opacity="1.000000" stroke="#FFFFFF" stroke-linecap="round" stroke-linejoin="round" stroke-width="3.000000"
	d="
M973.500000,375.000000 
	C971.844055,376.308838 969.885864,375.952301 968.000000,376.000580 
	C954.744690,376.339935 941.733521,378.341858 929.008118,382.028076 
	C919.806519,384.693573 910.263977,385.727509 901.015869,388.062805 
	C884.662476,392.192261 868.039368,390.565247 851.502197,391.072235 
	C843.322754,391.322968 835.174011,392.460541 826.996094,392.931854 
	C824.086792,393.099518 823.264832,395.975708 820.551270,396.693726 
	C815.076904,398.142151 809.458313,398.545746 803.965454,399.855103 
	C790.236816,403.127655 776.333313,405.666687 762.500000,408.500000 
"/>
<path fill="none" opacity="1.000000" stroke="#FFFFFF" stroke-linecap="round" stroke-linejoin="round" stroke-width="3.000000"
	d="
M362.500000,413.500000 
	C343.666656,409.333344 324.863617,405.023468 305.992981,401.033234 
	C277.019714,394.906708 247.990784,389.043274 219.026398,382.876038 
	C217.531982,382.557831 216.068253,382.026184 214.500000,382.000000 
"/>
<path fill="none" opacity="1.000000" stroke="#FFFFFF" stroke-linecap="round" stroke-linejoin="round" stroke-width="3.000000"
	d="
M1186.000000,680.000000 
	C1181.119141,682.476562 1175.673096,682.268738 1170.485718,682.878479 
	C1158.697632,684.263977 1146.772949,684.546875 1135.015137,686.113281 
	C1119.876099,688.130066 1104.686523,689.498840 1089.511475,691.108154 
	C1071.026245,693.068542 1052.516602,693.306458 1034.003174,692.867371 
	C1024.982788,692.653442 1015.965271,691.458496 1006.974243,690.181458 
	C1000.819641,689.307251 994.628601,688.664551 988.487610,687.569519 
	C985.652161,687.063904 984.429871,688.221313 985.434448,691.519958 
	C989.447021,704.695312 993.374329,717.852539 998.859009,730.560852 
	C1003.060730,740.296509 1010.053833,745.548706 1019.985596,748.056946 
	C1031.829224,751.047852 1043.799194,752.370789 1055.989136,753.166931 
	C1078.501709,754.637329 1101.000366,753.696350 1123.500854,753.909180 
	C1131.162109,753.981750 1138.832886,752.992554 1146.500732,752.512146 
	C1147.209106,752.467834 1147.547485,752.214111 1147.500000,751.500000 
"/>
<path fill="none" opacity="1.000000" stroke="#FFFFFF" stroke-linecap="round" stroke-linejoin="round" stroke-width="3.000000"
	d="
M789.000000,537.000000 
	C788.042603,534.046021 785.027344,534.173828 782.966919,533.623840 
	C753.621094,525.789856 727.778442,532.188293 705.475769,552.973999 
	C692.523926,565.044861 684.549438,579.892883 681.179749,597.035339 
	C679.846008,603.820007 678.624695,610.701965 680.639282,618.098267 
	C682.137634,623.599304 680.108276,629.997986 680.053833,636.000488 
	C679.976379,644.540283 679.366150,653.154297 682.000000,661.500000 
"/>
<path fill="none" opacity="1.000000" stroke="#FFFFFF" stroke-linecap="round" stroke-linejoin="round" stroke-width="2.000000"
	d="
M765.500000,680.500000 
	C753.333313,674.000000 741.097168,667.625122 729.042419,660.923645 
	C725.434387,658.917908 722.233826,656.118958 719.042664,653.448975 
	C717.487122,652.147461 715.883789,651.138123 714.087524,650.360840 
	C711.334839,653.055908 712.236755,656.619507 712.170105,659.503906 
	C711.615845,683.510620 715.720154,706.386963 729.993164,726.504822 
	C733.423157,731.339478 734.188110,731.298523 737.021729,726.512878 
	C745.628357,711.977356 754.333313,697.500000 763.000000,683.000000 
"/>
<path fill="none" opacity="1.000000" stroke="#FFFFFF" stroke-linecap="round" stroke-linejoin="round" stroke-width="2.000000"
	d="
M896.500000,722.500000 
	C908.714417,727.264648 921.406250,730.482666 934.006409,733.976929 
	C957.941956,740.614746 982.217102,745.848633 1006.520752,750.900208 
	C1014.388672,752.535583 1022.500000,753.000000 1030.500000,754.000000 
"/>
<path fill="none" opacity="1.000000" stroke="#FFFFFF" stroke-linecap="round" stroke-linejoin="round" stroke-width="3.000000"
	d="
M1334.000000,540.500000 
	C1332.931152,546.170288 1328.508667,549.591064 1324.932129,553.436951 
	C1318.833008,559.995483 1312.760254,566.748596 1305.402588,571.859863 
	C1299.917114,575.670532 1293.252808,577.518494 1287.016846,580.041748 
	C1270.285645,586.812012 1253.653687,593.868774 1236.475952,599.425842 
	C1222.113525,604.072205 1207.344971,607.587830 1192.451904,609.653198 
	C1185.130249,610.668640 1177.498047,611.046265 1170.009033,611.618835 
	C1158.474609,612.500793 1147.013062,614.295166 1135.496338,615.463745 
	C1124.013062,616.628967 1112.496948,617.466370 1101.000854,618.509827 
	C1090.496704,619.463257 1080.000000,620.500305 1069.499878,621.498169 
	C1069.334717,621.513855 1069.164917,621.515808 1069.000244,621.497620 
	C1059.251465,620.417908 1049.752686,623.345398 1039.996948,623.173462 
	C1030.477173,623.005737 1020.941772,622.765564 1011.514404,621.851685 
	C993.180298,620.074463 975.100525,616.481567 956.964783,613.194397 
	C929.709656,608.254456 902.775330,601.781189 875.502014,596.988708 
	C870.345886,596.082642 865.398193,593.897705 860.000000,594.500000 
"/>
<path fill="none" opacity="1.000000" stroke="#FFFFFF" stroke-linecap="round" stroke-linejoin="round" stroke-width="3.000000"
	d="
M1114.500000,693.500000 
	C1113.666626,695.500000 1112.623413,697.441284 1112.044312,699.512390 
	C1110.881348,703.671509 1107.923340,705.539551 1103.995728,705.960632 
	C1096.510376,706.763062 1089.008911,707.466187 1081.498169,707.972534 
	C1065.683960,709.038635 1049.870483,710.617065 1034.002563,709.940552 
	C1019.781921,709.334290 1005.524963,708.843445 991.494385,706.028137 
	C991.205994,705.970337 990.833313,706.333313 990.500000,706.499939 
"/>
<path fill="none" opacity="1.000000" stroke="#FFFFFF" stroke-linecap="round" stroke-linejoin="round" stroke-width="3.000000"
	d="
M857.500000,395.500000 
	C845.684387,394.111420 834.135803,395.455872 823.017578,399.547821 
	C807.564514,405.235199 791.593201,408.796661 775.506165,412.030609 
	C761.310059,414.884399 747.160095,417.969788 733.011414,421.052307 
	C731.758911,421.325134 730.666687,422.333313 729.500000,423.000000 
"/>
<path fill="none" opacity="1.000000" stroke="#FFFFFF" stroke-linecap="round" stroke-linejoin="round" stroke-width="3.000000"
	d="
M385.500000,389.500031 
	C408.833344,394.333344 432.111847,399.455048 455.518036,403.905243 
	C473.019287,407.232727 490.598145,410.146698 508.013519,413.937897 
	C509.411011,414.242096 511.000000,413.666656 512.500000,413.500000 
"/>
<path fill="none" opacity="1.000000" stroke="#FFFFFF" stroke-linecap="round" stroke-linejoin="round" stroke-width="2.000000"
	d="
M748.000000,658.000000 
	C752.689453,660.212708 757.326233,662.543152 762.497864,663.511475 
	C767.854553,664.514465 770.377075,663.349731 773.000000,658.500000 
	C778.065125,649.134644 777.066406,645.986572 766.981018,642.048584 
	C754.099915,637.018921 741.089783,632.333496 727.000549,631.978333 
	C723.770935,631.896912 721.181824,632.504211 719.970032,635.989563 
	C718.797668,639.361572 720.457458,641.113647 722.953064,643.060181 
	C730.519043,648.961304 738.685425,653.761353 747.500000,657.500000 
"/>
<path fill="none" opacity="1.000000" stroke="#FFFFFF" stroke-linecap="round" stroke-linejoin="round" stroke-width="3.000000"
	d="
M800.500000,572.000000 
	C805.133179,573.289001 805.236633,577.878235 805.785828,581.037231 
	C807.972351,593.613525 809.346558,606.331604 810.991516,619.001099 
	C811.454163,622.564392 810.286133,625.996399 810.018127,629.501404 
	C809.867798,631.467590 808.804749,632.066406 806.999573,632.015930 
	C804.668091,631.950623 802.333313,632.000000 800.000000,632.000000 
	C794.162231,632.000000 791.321777,629.365906 791.009521,623.499512 
	C790.192505,608.147766 792.302795,593.041199 795.053955,578.009888 
	C795.553040,575.283142 797.098816,572.971252 800.000000,572.000000 
"/>
<path fill="none" opacity="1.000000" stroke="#FFFFFF" stroke-linecap="round" stroke-linejoin="round" stroke-width="3.000000"
	d="
M254.500000,532.000000 
	C243.610764,535.154846 242.517166,544.401062 240.966965,553.494385 
	C239.059647,564.682312 240.036850,575.624756 242.941803,586.515503 
	C243.533615,588.734192 242.912643,591.024536 241.507065,593.005005 
	C235.671112,601.228088 222.672729,600.786255 216.850449,592.606445 
	C215.057831,590.088013 216.498779,588.344238 217.154007,587.079834 
	C221.239731,579.195740 226.290878,571.903931 232.524857,565.524292 
	C234.576645,563.424622 236.475296,561.291870 237.500000,558.500000 
"/>
<path fill="none" opacity="1.000000" stroke="#FFFFFF" stroke-linecap="round" stroke-linejoin="round" stroke-width="3.000000"
	d="
M1175.000000,588.500000 
	C1167.166626,588.166687 1159.336426,587.687256 1151.499512,587.525574 
	C1119.335693,586.861938 1087.179810,585.594604 1055.001221,586.077637 
	C1053.158813,586.105286 1051.333374,584.506165 1049.500000,586.000000 
"/>
<path fill="none" opacity="1.000000" stroke="#FFFFFF" stroke-linecap="round" stroke-linejoin="round" stroke-width="3.000000"
	d="
M1108.000000,695.000000 
	C1103.046143,697.099304 1097.652588,697.229431 1092.482910,697.859253 
	C1069.574585,700.650452 1046.501099,700.575684 1023.507874,699.773865 
	C1011.655090,699.360535 999.709290,697.978394 988.000000,695.500000 
"/>
<path fill="none" opacity="1.000000" stroke="#FFFFFF" stroke-linecap="round" stroke-linejoin="round" stroke-width="3.000000"
	d="
M587.000000,426.500000 
	C594.139099,428.949707 601.200867,431.390411 609.004272,431.127716 
	C613.501465,430.976318 617.773926,430.304352 621.995544,428.985687 
	C627.532471,427.256165 630.684387,428.595917 632.434631,434.021088 
	C633.309753,436.733398 633.698364,439.648010 633.966797,442.503113 
	C635.374451,457.474121 634.984253,472.493652 634.993225,487.500000 
	C635.014282,522.666687 635.000000,557.833313 635.000000,593.000000 
	C635.000000,595.333313 635.000000,597.666687 635.000000,600.000000 
"/>
<path fill="none" opacity="1.000000" stroke="#FFFFFF" stroke-linecap="round" stroke-linejoin="round" stroke-width="3.000000"
	d="
M125.999992,369.000000 
	C124.666656,374.500000 122.701965,379.940430 122.175766,385.516602 
	C121.638596,391.208954 120.151093,396.623199 115.865204,399.819244 
	C108.339073,405.431427 107.463470,412.910095 108.056824,420.995819 
	C109.509178,440.787292 112.367455,460.409027 121.208618,478.397461 
	C124.369026,484.827728 123.004578,489.778107 119.928825,494.957733 
	C117.599052,498.881134 115.358292,502.857880 112.607468,506.579437 
	C107.748192,513.153381 108.507317,517.283203 115.545227,521.423096 
	C132.078888,531.148804 148.244156,541.511963 165.423981,550.151184 
	C168.974533,551.936646 171.804810,550.875305 175.000000,550.500000 
"/>
<path fill="none" opacity="1.000000" stroke="#FFFFFF" stroke-linecap="round" stroke-linejoin="round" stroke-width="2.000000"
	d="
M642.000000,527.000000 
	C657.666687,531.333313 673.333191,535.667053 689.001465,539.994690 
	C689.156311,540.037476 689.342529,539.964539 689.498657,540.005066 
	C700.682251,542.910400 697.875916,546.365051 693.505371,552.004150 
	C690.457336,555.936951 687.356079,559.812805 684.112183,563.596191 
	C681.814148,566.276489 679.101379,566.554626 676.527100,565.894409 
	C665.131226,562.971680 653.833313,559.666626 642.500000,556.500000 
"/>
<path fill="none" opacity="1.000000" stroke="#FFFFFF" stroke-linecap="round" stroke-linejoin="round" stroke-width="3.000000"
	d="
M749.500000,727.500000 
	C747.403320,730.690002 745.830505,734.037292 745.987976,738.000488 
	C746.172424,742.646423 751.129028,745.890930 754.389465,742.880249 
	C765.993408,732.164978 778.003662,721.746216 787.401855,708.928040 
	C791.081909,703.908936 789.184082,698.129700 783.500000,693.500000 
	C780.118591,690.745789 774.670715,691.511353 770.513245,695.513733 
	C762.940735,702.803772 758.530701,712.298828 753.082458,721.051331 
	C751.928528,722.904968 749.818726,724.409363 750.000000,727.000000 
"/>
<path fill="none" opacity="1.000000" stroke="#FFFFFF" stroke-linecap="round" stroke-linejoin="round" stroke-width="3.000000"
	d="
M184.500000,464.000000 
	C182.774887,462.673157 183.541550,460.715485 184.094452,459.544586 
	C189.268860,448.586639 194.424591,437.476013 205.534790,431.060242 
	C210.558136,428.159393 215.573944,427.209808 222.041367,427.784760 
	C237.842560,429.189514 249.127182,437.509521 260.008636,447.490570 
	C276.486420,462.604889 288.016937,481.465942 292.892792,502.639832 
	C297.136353,521.068115 304.707214,539.268982 302.595184,559.010193 
	C301.307983,571.041809 300.905090,583.116089 292.566833,593.056030 
	C290.936096,595.000061 289.983643,597.595398 289.040955,600.015930 
	C287.445282,604.113098 288.625977,605.886536 292.991913,607.030884 
	C296.667023,607.994080 300.838257,607.148560 304.000000,610.000000 
"/>
<path fill="none" opacity="1.000000" stroke="#FFFFFF" stroke-linecap="round" stroke-linejoin="round" stroke-width="2.000000"
	d="
M428.000000,279.000000 
	C419.323730,303.804504 412.735687,329.166199 408.050781,355.009216 
	C406.399475,364.118225 405.333313,373.333344 404.000000,382.500000 
"/>
<path fill="none" opacity="1.000000" stroke="#FFFFFF" stroke-linecap="round" stroke-linejoin="round" stroke-width="3.000000"
	d="
M283.500000,314.000000 
	C280.109436,311.535004 276.399475,313.365051 273.011414,313.640533 
	C245.084244,315.911377 217.257080,319.166046 189.503571,323.025696 
	C187.309799,323.330750 185.166656,323.999969 183.000000,324.499969 
"/>
<path fill="none" opacity="1.000000" stroke="#FFFFFF" stroke-linecap="round" stroke-linejoin="round" stroke-width="3.000000"
	d="
M1272.000000,674.000000 
	C1270.668945,678.343567 1266.353394,682.640259 1260.491699,684.979126 
	C1233.791992,695.632507 1206.874023,705.689453 1179.540649,714.624390 
	C1178.224243,715.054749 1177.500000,714.119263 1176.500000,714.500000 
"/>
<path fill="none" opacity="1.000000" stroke="#FFFFFF" stroke-linecap="round" stroke-linejoin="round" stroke-width="2.000000"
	d="
M981.500000,687.500000 
	C959.549072,683.525330 938.128174,677.315063 916.527832,671.889282 
	C906.837402,669.455139 896.983765,667.223206 887.981567,662.535400 
	C887.457153,662.262268 886.666687,662.500000 886.000000,662.500000 
"/>
<path fill="none" opacity="1.000000" stroke="#FFFFFF" stroke-linecap="round" stroke-linejoin="round" stroke-width="3.000000"
	d="
M581.500000,391.500000 
	C576.582458,385.441589 570.831604,380.530975 563.531555,377.425873 
	C560.099670,375.966125 556.495544,375.240021 552.995911,375.132812 
	C542.839050,374.821686 532.686401,374.665466 522.489075,375.332886 
	C511.195251,376.072052 507.229767,382.731934 505.704163,392.033478 
	C504.466736,399.577850 505.219574,407.176727 512.437256,412.583771 
	C517.336060,416.253662 523.039734,417.181335 528.503967,417.278656 
	C537.989746,417.447601 547.525635,418.661255 556.990784,417.429016 
	C563.040100,416.641449 568.965698,414.931946 575.007141,414.048737 
	C587.692688,412.194244 589.184082,409.584106 584.013794,397.494110 
	C583.247925,395.703217 582.666626,393.833344 581.999939,392.000031 
"/>
<path fill="none" opacity="1.000000" stroke="#FFFFFF" stroke-linecap="round" stroke-linejoin="round" stroke-width="3.000000"
	d="
M1279.500000,651.000000 
	C1280.300781,655.717529 1276.864868,659.264709 1276.041504,663.508057 
	C1274.667603,670.589966 1270.343262,673.626160 1263.599854,676.255920 
	C1237.350098,686.492920 1211.055908,696.583130 1184.553589,706.148376 
	C1182.949585,706.727295 1181.515625,706.737061 1180.000000,707.000000 
"/>
<path fill="none" opacity="1.000000" stroke="#FFFFFF" stroke-linecap="round" stroke-linejoin="round" stroke-width="2.000000"
	d="
M253.000000,582.500000 
	C257.867981,572.978821 261.526947,563.065063 263.588776,552.517334 
	C264.531006,547.697021 263.640381,543.344421 261.947021,539.020752 
	C261.311523,537.398132 260.221069,535.904663 257.999207,535.975403 
	C255.911530,536.041809 255.875977,537.914490 255.580231,539.021423 
	C252.389236,550.964233 249.890579,563.007324 251.483795,575.502075 
	C251.722214,577.371765 251.792816,579.249512 253.500000,580.500000 
"/>
<path fill="none" opacity="1.000000" stroke="#FFFFFF" stroke-linecap="round" stroke-linejoin="round" stroke-width="3.000000"
	d="
M778.500000,633.500000 
	C777.104309,626.252930 778.243835,619.117676 779.510620,612.001892 
	C781.470154,600.994690 783.598083,590.016602 785.460632,578.993347 
	C786.462463,573.063843 782.454529,570.995667 776.978455,572.417053 
	C765.020264,575.520874 754.729614,581.663757 745.581421,589.593933 
	C737.931091,596.225647 731.229614,603.830078 726.447510,612.972534 
	C723.587280,618.440735 723.747742,618.613098 729.451660,621.110352 
	C734.025574,623.112793 738.917297,623.207581 743.530090,623.738586 
	C754.139587,624.960083 764.357300,627.424133 774.500000,630.500000 
"/>
<path fill="none" opacity="1.000000" stroke="#FFFFFF" stroke-linecap="round" stroke-linejoin="round" stroke-width="3.000000"
	d="
M345.500000,278.000000 
	C341.185883,282.654785 335.187286,284.716858 329.955017,287.926697 
	C317.092499,295.817413 304.042206,303.406036 290.990204,310.983124 
	C270.989807,322.593842 251.038513,334.308716 229.990738,343.979828 
	C223.336823,347.037170 216.628296,349.851654 208.997223,349.577057 
	C205.012573,349.433685 201.304779,348.054504 197.552612,347.253540 
	C189.082672,345.445435 180.420883,345.340485 171.999481,343.502350 
	C165.835449,342.156921 159.178574,341.856720 153.636627,339.213531 
	C148.042526,336.545441 143.924911,338.284149 139.532837,340.563263 
	C134.522568,343.163208 131.463394,347.449646 129.945282,352.984985 
	C128.588303,357.932922 125.993515,362.598694 127.000000,368.000000 
"/>
<path fill="none" opacity="1.000000" stroke="#FFFFFF" stroke-linecap="round" stroke-linejoin="round" stroke-width="3.000000"
	d="
M1271.500000,667.500000 
	C1263.522339,671.602783 1254.889404,673.973511 1246.515015,677.040894 
	C1227.301147,684.078552 1208.175415,691.356934 1188.984985,698.459595 
	C1187.264038,699.096619 1185.333374,699.166748 1183.500000,699.500061 
"/>
<path fill="none" opacity="1.000000" stroke="#FFFFFF" stroke-linecap="round" stroke-linejoin="round" stroke-width="3.000000"
	d="
M122.500000,389.500000 
	C123.904137,392.193939 126.211372,389.920807 128.032120,390.532501 
	C129.541428,392.113678 128.973663,394.133179 128.979721,396.000061 
	C129.019180,408.166595 129.011261,420.333344 128.995956,432.500000 
	C128.986038,440.392761 129.374939,448.241974 130.937012,456.012665 
	C131.150864,457.076569 131.524292,458.455841 130.163223,459.913330 
	C124.709724,457.650757 119.104858,455.325378 113.499992,453.000031 
"/>
<path fill="none" opacity="1.000000" stroke="#FFFFFF" stroke-linecap="round" stroke-linejoin="round" stroke-width="3.000000"
	d="
M1275.500000,656.500000 
	C1249.678223,665.201294 1224.113281,674.665161 1198.016235,682.553528 
	C1196.174194,683.110291 1194.475952,683.950867 1192.500000,683.500000 
"/>
<path fill="none" opacity="1.000000" stroke="#FFFFFF" stroke-linecap="round" stroke-linejoin="round" stroke-width="2.000000"
	d="
M1269.500000,664.500000 
	C1244.536499,673.436707 1219.736938,682.839844 1194.486084,690.956665 
	C1192.080078,691.729980 1189.919189,694.096069 1187.000000,692.500000 
"/>
<path fill="none" opacity="1.000000" stroke="#FFFFFF" stroke-linecap="round" stroke-linejoin="round" stroke-width="2.000000"
	d="
M721.500000,513.500000 
	C716.219482,509.784637 709.896423,508.662598 703.991028,506.524780 
	C684.014587,499.293091 664.001099,492.163605 643.992920,485.019928 
	C643.549438,484.861572 643.000000,485.000000 642.500000,485.000000 
"/>
<path fill="none" opacity="1.000000" stroke="#FFFFFF" stroke-linecap="round" stroke-linejoin="round" stroke-width="3.000000"
	d="
M199.500000,479.500000 
	C207.979324,488.026276 216.780685,496.251587 224.448151,505.542786 
	C226.042023,507.474182 227.349197,509.690613 228.599258,511.944946 
	C231.630936,517.412231 228.901062,519.581604 224.985947,520.960083 
	C217.032944,523.760254 209.020050,526.396057 200.987976,528.962341 
	C198.532257,529.747009 196.351013,531.649597 193.594208,530.937683 
	C191.217804,526.408875 192.840775,521.616455 193.126480,517.007812 
	C193.806351,506.041016 195.006287,495.082336 200.017700,485.008820 
	C200.382767,484.274994 200.999985,483.666656 201.499985,483.000000 
"/>
<path fill="none" opacity="1.000000" stroke="#FFFFFF" stroke-linecap="round" stroke-linejoin="round" stroke-width="2.000000"
	d="
M878.000061,642.500000 
	C877.068604,639.478149 876.137146,636.456299 875.127136,633.179443 
	C861.853455,636.065063 848.717346,638.678833 836.002625,643.007690 
	C831.306335,644.606567 827.878174,649.564026 829.000000,653.000000 
	C831.143250,659.564880 836.059692,662.987488 841.504883,662.027588 
	C853.280701,659.951721 862.872681,653.450012 872.486084,646.979309 
	C874.250793,645.791626 875.833374,644.333374 877.500000,643.000000 
"/>
<path fill="none" opacity="1.000000" stroke="#FFFFFF" stroke-linecap="round" stroke-linejoin="round" stroke-width="3.000000"
	d="
M232.500000,539.500000 
	C219.501083,538.788269 206.713074,539.293396 194.775528,545.275757 
	C196.860245,556.662354 199.549072,567.008362 205.957031,576.030518 
	C206.825134,577.252808 207.556076,578.443909 209.000000,579.000000 
"/>
<path fill="none" opacity="1.000000" stroke="#FFFFFF" stroke-linecap="round" stroke-linejoin="round" stroke-width="3.000000"
	d="
M1116.500000,711.000000 
	C1102.833374,712.666687 1089.202148,714.826050 1075.486694,715.816101 
	C1067.196167,716.414490 1058.887451,717.317078 1050.497559,717.094177 
	C1036.166382,716.713623 1021.801453,717.401978 1007.505188,715.948730 
	C1002.837646,715.474304 998.247498,714.245422 993.500000,714.500000 
"/>
<path fill="none" opacity="1.000000" stroke="#FFFFFF" stroke-linecap="round" stroke-linejoin="round" stroke-width="3.000000"
	d="
M880.500000,654.500000 
	C878.073364,655.609070 877.807190,657.515808 877.942505,660.003113 
	C878.989136,679.252319 874.397095,697.303162 865.994995,714.497559 
	C864.233948,718.101440 861.368347,720.806946 858.500000,723.500000 
"/>
<path fill="none" opacity="1.000000" stroke="#FFFFFF" stroke-linecap="round" stroke-linejoin="round" stroke-width="3.000000"
	d="
M1252.000000,467.500000 
	C1248.127319,469.586578 1247.837280,470.521973 1251.032471,472.446106 
	C1257.422974,476.294495 1263.935791,479.954681 1270.530884,483.441528 
	C1273.251465,484.879852 1276.286133,485.197235 1279.947754,482.404877 
	C1272.079102,474.499298 1262.209351,470.882538 1252.500000,467.000000 
"/>
<path fill="none" opacity="1.000000" stroke="#FFFFFF" stroke-linecap="round" stroke-linejoin="round" stroke-width="3.000000"
	d="
M235.500000,455.500000 
	C231.500000,455.333344 227.275955,454.269318 223.549835,455.199585 
	C217.146393,456.798340 212.412354,461.201508 208.940674,466.964264 
	C207.317108,469.659241 207.732697,472.238281 209.576721,473.915649 
	C217.713196,481.316559 226.611710,487.754913 236.020477,493.466278 
	C236.190109,493.569244 236.666656,493.166656 236.999985,492.999969 
"/>
<path fill="none" opacity="1.000000" stroke="#FFFFFF" stroke-linecap="round" stroke-linejoin="round" stroke-width="3.000000"
	d="
M814.000000,668.500000 
	C811.159363,659.170654 805.373901,656.190247 797.500000,660.000000 
	C792.756165,662.295227 790.870361,666.581238 791.999939,672.500000 
	C792.812805,676.758850 797.911438,680.084045 803.500000,680.000061 
	C809.071899,679.916260 812.008728,677.580566 812.889099,671.982544 
	C813.075195,670.799316 813.857239,670.063538 814.000000,669.000000 
"/>
<path fill="none" opacity="1.000000" stroke="#FFFFFF" stroke-linecap="round" stroke-linejoin="round" stroke-width="2.000000"
	d="
M266.000000,535.500000 
	C264.723999,520.955078 264.805328,506.246613 260.981354,492.005005 
	C258.708344,483.539642 255.671158,475.395050 249.982040,467.826599 
	C247.440460,471.365479 247.276978,474.918549 246.973709,478.497772 
	C245.926239,490.860046 250.498199,502.092072 254.197113,513.435730 
	C254.807556,515.307800 255.138077,518.953918 258.499237,518.920898 
	C261.428009,518.892151 261.978027,515.811340 263.500000,514.000000 
"/>
<path fill="none" opacity="1.000000" stroke="#FFFFFF" stroke-linecap="round" stroke-linejoin="round" stroke-width="3.000000"
	d="
M829.500000,750.000000 
	C823.333313,750.333313 817.170349,750.824219 810.999268,750.967102 
	C798.255127,751.262268 785.985352,748.607971 774.028320,744.419250 
	C773.132019,744.105286 772.333008,744.168213 771.500000,744.000000 
"/>
<path fill="none" opacity="1.000000" stroke="#FFFFFF" stroke-linecap="round" stroke-linejoin="round" stroke-width="2.000000"
	d="
M1278.500000,568.500000 
	C1273.052734,572.830261 1266.229004,574.043518 1259.962280,576.399597 
	C1244.669678,582.149353 1229.299805,587.678711 1213.539062,592.137939 
	C1204.515625,594.691040 1195.512207,597.374695 1186.500000,600.000000 
"/>
<path fill="none" opacity="1.000000" stroke="#FFFFFF" stroke-linecap="round" stroke-linejoin="round" stroke-width="3.000000"
	d="
M1044.500000,578.000000 
	C1039.166626,577.833313 1033.782104,578.077942 1028.509888,577.420532 
	C1014.382446,575.659119 1000.219604,574.302917 986.007812,575.133606 
	C978.924255,575.547668 975.136536,579.323853 978.014160,586.494324 
	C982.326233,597.239136 986.310852,608.124084 991.500000,618.500000 
"/>
<path fill="none" opacity="1.000000" stroke="#FFFFFF" stroke-linecap="round" stroke-linejoin="round" stroke-width="2.000000"
	d="
M817.000000,583.000000 
	C835.532715,589.594849 851.352234,599.889038 862.473389,616.517822 
	C863.835144,618.553955 864.833313,620.833313 866.000000,623.000000 
"/>
<path fill="none" opacity="1.000000" stroke="#FFFFFF" stroke-linecap="round" stroke-linejoin="round" stroke-width="3.000000"
	d="
M585.000000,367.500000 
	C591.878113,376.973145 596.885559,387.568665 603.000061,397.499939 
	C607.384766,404.621429 611.532959,411.917236 618.467468,417.044006 
	C619.298218,417.658173 619.972534,418.152069 621.000000,418.000000 
"/>
<path fill="none" opacity="1.000000" stroke="#FFFFFF" stroke-linecap="round" stroke-linejoin="round" stroke-width="3.000000"
	d="
M728.500000,661.500000 
	C726.618225,673.280945 730.037476,684.421326 733.155640,695.456055 
	C734.966553,701.864502 738.333374,707.833313 741.000000,714.000000 
"/>
<path fill="none" opacity="1.000000" stroke="#FFFFFF" stroke-linecap="round" stroke-linejoin="round" stroke-width="3.000000"
	d="
M1130.000000,688.000000 
	C1130.492432,689.402588 1129.535034,690.415161 1128.983521,691.491516 
	C1122.727539,703.698303 1116.587769,715.974060 1110.356201,728.181824 
	C1107.383423,734.005432 1104.126465,735.372925 1098.517578,736.130249 
	C1084.011353,738.088806 1069.526001,737.625610 1054.998657,737.033691 
	C1049.840576,736.823425 1044.657349,737.199707 1039.501953,736.959351 
	C1027.995850,736.422791 1016.499573,735.673767 1005.000732,734.987976 
	C1003.967834,734.926453 1003.091614,735.062378 1002.500000,736.000000 
"/>
<path fill="none" opacity="1.000000" stroke="#FFFFFF" stroke-linecap="round" stroke-linejoin="round" stroke-width="3.000000"
	d="
M536.000000,419.000000 
	C544.942810,422.026123 554.365234,422.848328 563.507629,424.967194 
	C569.300171,426.309692 575.233948,427.080902 580.970764,428.609741 
	C583.714172,429.340912 585.873413,428.986908 586.328491,426.468994 
	C586.745300,424.162842 586.529175,421.254578 583.008118,420.463898 
	C577.840210,419.303345 572.470154,419.037079 567.500000,417.000000 
"/>
<path fill="none" opacity="1.000000" stroke="#FFFFFF" stroke-linecap="round" stroke-linejoin="round" stroke-width="2.000000"
	d="
M877.000000,657.499939 
	C867.333313,662.499939 857.688416,667.542908 847.980347,672.461182 
	C846.188538,673.369019 845.635986,674.458435 844.682983,676.339355 
	C841.019836,683.569153 841.605469,689.716370 844.762512,697.101501 
	C849.995483,709.342834 855.544861,721.545105 859.053284,734.485535 
	C859.309875,735.432007 860.325745,736.172607 860.988586,737.008728 
	C868.405457,731.346191 876.095032,719.453796 879.989990,707.496704 
	C882.046936,701.182007 884.000000,694.833313 886.000000,688.500000 
"/>
<path fill="none" opacity="1.000000" stroke="#FFFFFF" stroke-linecap="round" stroke-linejoin="round" stroke-width="3.000000"
	d="
M784.000000,584.000000 
	C764.767334,591.017517 750.148132,603.933899 738.040405,620.030396 
	C737.720154,620.456177 738.000000,621.333313 738.000000,622.000000 
"/>
<path fill="none" opacity="1.000000" stroke="#FFFFFF" stroke-linecap="round" stroke-linejoin="round" stroke-width="3.000000"
	d="
M131.500000,460.000000 
	C139.694763,464.111694 148.599625,466.410126 157.008591,469.979767 
	C159.285385,470.946259 161.720535,471.542267 163.989304,472.524689 
	C169.478729,474.901886 174.780930,478.528717 181.000000,474.500000 
"/>
<path fill="none" opacity="1.000000" stroke="#FFFFFF" stroke-linecap="round" stroke-linejoin="round" stroke-width="3.000000"
	d="
M958.000000,353.000000 
	C965.132629,343.646332 958.176086,325.994476 948.023315,323.887634 
	C942.106506,322.659882 935.925049,324.512421 932.000000,330.000000 
"/>
<path fill="none" opacity="1.000000" stroke="#FFFFFF" stroke-linecap="round" stroke-linejoin="round" stroke-width="3.000000"
	d="
M1354.000000,561.500000 
	C1355.792236,565.486572 1355.732788,569.900024 1355.797729,574.003174 
	C1355.908203,580.991577 1356.663208,587.954224 1356.219971,595.013794 
	C1355.833252,601.176208 1353.087646,606.064514 1349.329224,609.829590 
	C1342.209595,616.961792 1334.470459,623.592224 1325.748901,628.136414 
	C1326.621704,634.472351 1325.082764,640.243774 1323.950928,645.990356 
	C1321.316650,659.363525 1317.191772,672.423340 1315.466064,685.995667 
	C1315.398193,686.529419 1314.833374,687.000000 1314.500000,687.500000 
"/>
<path fill="none" opacity="1.000000" stroke="#FFFFFF" stroke-linecap="round" stroke-linejoin="round" stroke-width="3.000000"
	d="
M194.500000,345.500000 
	C191.656097,338.844116 187.027725,333.252167 183.471268,327.016388 
	C178.586136,318.450867 173.303543,310.107910 168.558212,301.468018 
	C164.276215,293.671692 158.604782,287.983032 149.499527,286.502899 
	C143.495468,285.526886 137.888275,282.170319 131.767944,283.152222 
	C127.712059,304.337585 134.246475,321.895203 148.500000,337.000000 
"/>
<path fill="none" opacity="1.000000" stroke="#FFFFFF" stroke-linecap="round" stroke-linejoin="round" stroke-width="3.000000"
	d="
M1273.000000,675.500000 
	C1285.833374,680.166687 1298.680176,684.797058 1311.471069,689.577332 
	C1312.373169,689.914490 1313.166992,689.831787 1314.000000,690.000000 
"/>
<path fill="none" opacity="1.000000" stroke="#FFFFFF" stroke-linecap="round" stroke-linejoin="round" stroke-width="3.000000"
	d="
M178.000000,374.000000 
	C165.166672,370.833344 152.333328,367.666656 139.500000,364.500000 
"/>
<path fill="none" opacity="1.000000" stroke="#FFFFFF" stroke-linecap="round" stroke-linejoin="round" stroke-width="3.000000"
	d="
M1108.500000,734.500000 
	C1120.333374,739.333313 1132.160522,744.181885 1144.015137,748.962463 
	C1144.731934,749.251526 1145.666626,749.000000 1146.500000,749.000000 
"/>
<path fill="none" opacity="1.000000" stroke="#FFFFFF" stroke-linecap="round" stroke-linejoin="round" stroke-width="2.000000"
	d="
M130.500000,492.500000 
	C139.411530,499.016449 149.535095,503.439087 159.010559,508.981964 
	C161.775284,510.599243 164.666656,512.000000 167.500000,513.500000 
"/>
<path fill="none" opacity="1.000000" stroke="#FFFFFF" stroke-linecap="round" stroke-linejoin="round" stroke-width="3.000000"
	d="
M682.000000,675.500000 
	C679.673401,680.278687 680.900330,685.522339 680.061279,690.510315 
	C678.904297,697.387207 676.916382,703.937927 673.418518,709.952637 
	C672.807861,711.002808 672.433105,711.866577 672.500000,713.000000 
"/>
<path fill="none" opacity="1.000000" stroke="#FFFFFF" stroke-linecap="round" stroke-linejoin="round" stroke-width="2.000000"
	d="
M232.500000,541.500000 
	C227.368759,551.982666 219.903488,560.996704 213.825333,570.892700 
	C211.132584,575.276855 209.545013,579.941406 207.500000,584.500000 
"/>
<path fill="none" opacity="1.000000" stroke="#FFFFFF" stroke-linecap="round" stroke-linejoin="round" stroke-width="3.000000"
	d="
M237.500000,456.500000 
	C237.952988,465.552948 235.335648,474.444336 236.017563,483.498688 
	C236.853241,494.594757 240.232483,504.699219 248.000000,513.000000 
"/>
<path fill="none" opacity="1.000000" stroke="#FFFFFF" stroke-linecap="round" stroke-linejoin="round" stroke-width="2.000000"
	d="
M244.500000,516.000000 
	C240.419357,519.127380 240.464218,523.101379 241.960281,527.513489 
	C242.663330,529.586914 243.637650,530.966858 245.999741,531.013000 
	C248.112885,531.054260 248.760818,529.765259 249.572159,528.033813 
	C251.932327,522.997131 250.499161,518.886841 245.000000,516.000000 
"/>
<path fill="none" opacity="1.000000" stroke="#FFFFFF" stroke-linecap="round" stroke-linejoin="round" stroke-width="3.000000"
	d="
M417.500000,436.500000 
	C405.833344,434.333344 394.166656,432.166687 382.500000,430.000000 
"/>
<path fill="none" opacity="1.000000" stroke="#FFFFFF" stroke-linecap="round" stroke-linejoin="round" stroke-width="3.000000"
	d="
M1046.500000,579.500000 
	C1048.533691,587.318726 1052.198608,594.588623 1054.060303,602.485779 
	C1055.501709,608.600586 1057.602295,614.571777 1056.500000,621.000000 
"/>
<path fill="none" opacity="1.000000" stroke="#FFFFFF" stroke-linecap="round" stroke-linejoin="round" stroke-width="2.000000"
	d="
M643.000000,590.000000 
	C654.500000,594.000000 666.000000,598.000000 677.500000,602.000000 
"/>
<path fill="none" opacity="1.000000" stroke="#FFFFFF" stroke-linecap="round" stroke-linejoin="round" stroke-width="3.000000"
	d="
M873.000000,622.500000 
	C857.334351,625.004089 842.188721,629.588196 827.000000,634.000000 
"/>
<path fill="none" opacity="1.000000" stroke="#FFFFFF" stroke-linecap="round" stroke-linejoin="round" stroke-width="3.000000"
	d="
M1302.000000,545.000000 
	C1303.644043,546.005676 1302.972656,547.633850 1302.971313,549.000000 
	C1302.963989,556.844666 1303.367432,564.710693 1302.000000,572.500000 
"/>
<path fill="none" opacity="1.000000" stroke="#FFFFFF" stroke-linecap="round" stroke-linejoin="round" stroke-width="2.000000"
	d="
M1329.000000,511.500000 
	C1324.154907,520.358337 1319.719360,529.460938 1313.500000,537.500000 
"/>
<path fill="none" opacity="1.000000" stroke="#FFFFFF" stroke-linecap="round" stroke-linejoin="round" stroke-width="3.000000"
	d="
M813.500000,730.000000 
	C810.594788,731.873291 807.517334,731.086426 804.504211,730.479065 
	C799.152954,729.400391 793.588745,729.284668 788.500000,727.000000 
"/>
<path fill="none" opacity="1.000000" stroke="#FFFFFF" stroke-linecap="round" stroke-linejoin="round" stroke-width="2.000000"
	d="
M795.000000,649.500000 
	C793.720032,647.780945 793.089905,645.617676 789.989075,645.861084 
	C787.543945,646.053040 786.191895,647.240601 785.607849,649.035095 
	C785.017090,650.850037 785.750427,652.893188 787.529175,653.950867 
	C789.147766,654.913391 791.052429,654.612854 792.453918,653.444702 
	C793.519470,652.556641 794.166626,651.166626 795.000000,650.000000 
"/>
<path fill="none" opacity="1.000000" stroke="#FFFFFF" stroke-linecap="round" stroke-linejoin="round" stroke-width="2.000000"
	d="
M908.500000,389.500000 
	C902.076050,390.557465 896.629089,393.738525 891.535461,397.547424 
	C889.939697,398.740662 888.469543,400.004791 886.500000,400.500000 
"/>
<path fill="none" opacity="1.000000" stroke="#FFFFFF" stroke-linecap="round" stroke-linejoin="round" stroke-width="2.000000"
	d="
M940.499939,382.499939 
	C933.666626,386.666626 926.825439,390.820618 920.022766,395.036804 
	C919.678528,395.250244 919.666626,396.000000 919.500000,396.500000 
"/>
<path fill="none" opacity="1.000000" stroke="#FFFFFF" stroke-linecap="round" stroke-linejoin="round" stroke-width="4.000000"
	d="
M128.000000,369.000000 
	C129.727737,376.130371 130.456345,383.283966 128.500000,390.500000 
"/>
<path fill="none" opacity="1.000000" stroke="#FFFFFF" stroke-linecap="round" stroke-linejoin="round" stroke-width="2.000000"
	d="
M747.500000,674.500000 
	C750.306030,678.927979 749.782410,684.350159 751.846497,689.067200 
	C752.657776,690.921326 753.487366,692.948669 754.000000,695.000000 
"/>
<path fill="none" opacity="1.000000" stroke="#FFFFFF" stroke-linecap="round" stroke-linejoin="round" stroke-width="3.000000"
	d="
M1064.000000,718.000000 
	C1061.000000,724.166687 1058.000000,730.333374 1055.000000,736.500000 
"/>
<path fill="none" opacity="1.000000" stroke="#FFFFFF" stroke-linecap="round" stroke-linejoin="round" stroke-width="3.000000"
	d="
M819.000000,649.000000 
	C815.453430,644.299988 813.928223,643.768555 811.520874,646.518250 
	C810.560364,647.615295 809.317444,648.964783 810.077271,650.460754 
	C810.830200,651.942810 811.863464,653.922852 813.977600,653.408081 
	C815.428223,653.054932 817.875061,653.839783 818.043152,651.002563 
	C818.073853,650.484680 818.666687,650.000061 819.000061,649.500061 
"/>
<path fill="none" opacity="1.000000" stroke="#FFFFFF" stroke-linecap="round" stroke-linejoin="round" stroke-width="3.000000"
	d="
M1245.500000,565.000000 
	C1246.269531,568.927795 1244.048706,572.309509 1243.452515,575.992310 
	C1243.127563,578.000000 1241.845947,579.889954 1243.000000,582.000000 
"/>
<path fill="none" opacity="1.000000" stroke="#FFFFFF" stroke-linecap="round" stroke-linejoin="round" stroke-width="2.000000"
	d="
M751.500000,640.500000 
	C751.019409,646.145508 747.704285,651.189819 748.000000,657.000000 
"/>
<path fill="none" opacity="1.000000" stroke="#FFFFFF" stroke-linecap="round" stroke-linejoin="round" stroke-width="3.000000"
	d="
M1341.000000,632.500000 
	C1336.160645,635.934937 1332.926270,641.228638 1327.536133,644.068542 
	C1326.686279,644.516296 1326.027466,645.152100 1325.000000,645.000000 
"/>
<path fill="none" opacity="1.000000" stroke="#FFFFFF" stroke-linecap="round" stroke-linejoin="round" stroke-width="3.000000"
	d="
M174.000000,536.500000 
	C172.781326,536.562622 171.716614,536.279297 170.913101,537.958435 
	C169.078918,541.791382 166.633896,545.332153 165.500000,549.500000 
"/>
<path fill="none" opacity="1.000000" stroke="#FFFFFF" stroke-linecap="round" stroke-linejoin="round" stroke-width="3.000000"
	d="
M1189.500000,609.000000 
	C1187.066284,604.405396 1186.225830,598.768982 1181.000000,596.000000 
"/>
<path fill="none" opacity="1.000000" stroke="#FFFFFF" stroke-linecap="round" stroke-linejoin="round" stroke-width="2.000000"
	d="
M1280.500000,553.000000 
	C1281.669312,557.718445 1278.715576,561.644043 1278.000000,566.000000 
"/>
<path fill="none" opacity="1.000000" stroke="#FFFFFF" stroke-linecap="round" stroke-linejoin="round" stroke-width="3.000000"
	d="
M1172.500000,582.500000 
	C1178.093994,590.750122 1182.631714,599.450073 1184.000000,609.500000 
"/>
<path fill="none" opacity="1.000000" stroke="#FFFFFF" stroke-linecap="round" stroke-linejoin="round" stroke-width="2.000000"
	d="
M770.500000,614.500000 
	C766.315186,617.708069 762.896545,621.615723 760.000000,626.000000 
"/>
<path fill="none" opacity="1.000000" stroke="#FFFFFF" stroke-linecap="round" stroke-linejoin="round" stroke-width="6.000000"
	d="
M682.500000,662.500000 
	C682.500000,666.500000 682.500000,670.500000 682.500000,674.500000 
"/>
<path fill="none" opacity="1.000000" stroke="#FFFFFF" stroke-linecap="round" stroke-linejoin="round" stroke-width="3.000000"
	d="
M750.500000,727.000000 
	C754.000000,729.666626 757.500000,732.333313 761.000000,735.000000 
"/>
<path fill="none" opacity="1.000000" stroke="#FFFFFF" stroke-linecap="round" stroke-linejoin="round" stroke-width="3.000000"
	d="
M802.500000,580.000000 
	C800.166687,580.000000 797.833313,580.000000 795.500000,580.000000 
"/>
<path fill="none" opacity="1.000000" stroke="#FFFFFF" stroke-linecap="round" stroke-linejoin="round" stroke-width="3.000000"
	d="
M827.500000,694.500000 
	C824.953735,695.194580 822.355286,695.649780 819.986816,696.976440 
	C813.645203,700.528870 811.859009,706.593201 816.052917,712.462158 
	C822.349792,721.274048 828.949341,729.872192 835.535217,738.473022 
	C837.207458,740.656860 839.340759,742.452759 841.995850,743.510437 
	C845.736511,745.000427 847.702576,743.606567 848.032593,739.502625 
	C848.551147,733.053955 846.046448,727.248596 843.842102,721.561157 
	C841.632751,715.860901 839.186218,710.227051 836.851074,704.561401 
	C835.148926,700.431396 833.056946,695.982056 828.000000,694.500000 
"/>
<path fill="none" opacity="1.000000" stroke="#FFFFFF" stroke-linecap="round" stroke-linejoin="round" stroke-width="3.000000"
	d="
M799.500000,688.000000 
	C798.666626,688.666626 797.517944,689.166199 797.059387,690.031494 
	C795.716187,692.566040 796.964905,696.304993 799.519287,696.919983 
	C802.189819,697.562988 804.090332,696.489746 805.080200,693.526794 
	C806.178223,690.240417 804.551208,688.953674 801.988708,688.031311 
	C801.398499,687.818848 800.666687,688.000000 800.000000,688.000000 
"/>
<path fill="none" opacity="1.000000" stroke="#FFFFFF" stroke-linecap="round" stroke-linejoin="round" stroke-width="3.000000"
	d="
M822.500000,672.000000 
	C819.024536,673.530823 819.413635,676.393311 820.606262,678.950439 
	C821.401978,680.656616 823.651611,681.725952 825.446167,680.885132 
	C827.459961,679.941772 829.617432,678.301392 828.948364,675.512390 
	C828.224426,672.494446 825.955872,671.527954 823.000000,672.000000 
"/>
<path fill="none" opacity="1.000000" stroke="#FFFFFF" stroke-linecap="round" stroke-linejoin="round" stroke-width="3.000000"
	d="
M779.500000,671.000000 
	C777.443604,672.267151 775.077393,673.712280 776.128967,676.450500 
	C776.833130,678.283936 778.475952,680.571594 780.971252,679.894165 
	C783.385437,679.238708 785.311462,677.745178 785.072144,674.494690 
	C784.807251,670.898010 782.560913,670.889160 780.000000,671.000000 
"/>
<path fill="none" opacity="1.000000" stroke="#FFFFFF" stroke-linecap="round" stroke-linejoin="round" stroke-width="3.000000"
	d="
M182.000000,373.000000 
	C176.705414,374.869629 176.671005,380.050995 176.215164,384.024689 
	C175.283524,392.145966 173.389450,400.199921 173.897141,408.506287 
	C174.093674,411.721893 175.100403,413.836090 178.004150,414.989563 
	C184.599854,417.609711 191.538269,418.937531 198.511398,419.919037 
	C201.781921,420.379364 203.474380,418.215637 204.024017,415.004120 
	C205.281296,407.657745 206.727982,400.343536 207.950119,392.991699 
	C208.205551,391.455170 208.556015,389.982178 208.909683,388.478760 
	C210.396713,382.157593 208.062607,378.990631 201.515320,376.950806 
	C195.286743,375.010345 188.850662,374.251038 182.500000,373.000000 
"/>
<path fill="none" opacity="1.000000" stroke="#FFFFFF" stroke-linecap="round" stroke-linejoin="round" stroke-width="3.000000"
	d="
M386.000000,421.000000 
	C381.528320,422.126160 380.675720,425.635559 380.516754,429.500702 
	C380.303131,434.694641 381.563812,439.003021 386.442749,442.090454 
	C392.057129,445.643372 398.448303,445.532410 404.512390,446.946869 
	C406.157349,447.330566 407.834717,447.401611 409.534973,447.874115 
	C414.381805,449.221100 420.374847,445.431488 421.999969,440.500000 
	C423.643646,435.512207 421.211761,428.950409 416.474945,427.062897 
	C406.881317,423.240204 396.876160,421.119141 386.500000,421.000000 
"/>
<path fill="none" opacity="1.000000" stroke="#FFFFFF" stroke-linecap="round" stroke-linejoin="round" stroke-width="3.000000"
	d="
M995.000000,578.000000 
	C994.666687,578.166626 994.332520,578.480591 994.000122,578.478760 
	C983.107971,578.419006 983.768860,581.408508 986.951050,590.018127 
	C989.237671,596.204651 991.219238,602.496948 993.976440,608.510803 
	C995.982422,612.886047 999.095642,615.063660 1003.968079,616.144104 
	C1017.534119,619.152283 1031.268799,619.215210 1045.001099,619.425964 
	C1050.609253,619.512085 1051.894775,617.316162 1050.515747,611.995911 
	C1048.291138,603.412842 1045.928345,594.886475 1043.200317,586.435303 
	C1042.010742,582.750305 1040.209351,581.754517 1037.000610,581.492249 
	C1024.999023,580.511536 1012.999878,579.501770 1001.000183,578.498169 
	C999.165710,578.344788 997.333313,578.166687 995.500000,578.000061 
"/>
<path fill="none" opacity="1.000000" stroke="#FFFFFF" stroke-linecap="round" stroke-linejoin="round" stroke-width="3.000000"
	d="
M1009.000000,515.000000 
	C1007.854553,515.658813 1006.404724,515.952332 1005.884583,517.762390 
	C1006.792725,519.707275 1008.271362,521.006714 1010.461670,522.078369 
	C1018.226685,525.877441 1025.808594,530.048706 1033.514404,533.971802 
	C1035.986450,535.230347 1038.631836,536.076721 1041.500366,536.019958 
	C1043.496704,535.980469 1045.275146,535.187500 1045.900635,533.463928 
	C1046.613525,531.499695 1045.608887,529.829346 1043.509399,528.976929 
	C1042.619629,528.615601 1041.878662,527.893494 1040.992798,527.516785 
	C1033.641724,524.390869 1026.481567,520.890991 1019.475159,517.045288 
	C1016.436279,515.377258 1013.062073,514.523071 1009.500000,515.000000 
"/>
</svg>