<?xml version="1.0" standalone="no"?>
<!DOCTYPE svg PUBLIC "-//W3C//DTD SVG 20010904//EN"
 "http://www.w3.org/TR/2001/REC-SVG-20010904/DTD/svg10.dtd">
<svg version="1.0" xmlns="http://www.w3.org/2000/svg"
 width="2901.000000pt" height="1432.000000pt" viewBox="0 0 2901.000000 1432.000000"
 preserveAspectRatio="xMidYMid meet">
<metadata>
Created by potrace 1.16, written by Peter Selinger 2001-2019
</metadata>
<g transform="translate(0.000000,1432.000000) scale(0.100000,-0.100000)"
fill="#000000" stroke="none">
<path d="M25284 12273 c-15 -21 -40 -49 -56 -63 -16 -14 -31 -38 -34 -55 -9
-61 -46 -257 -94 -500 -26 -137 -62 -324 -79 -415 -17 -91 -36 -184 -41 -207
-29 -123 -3 -153 130 -153 69 0 92 4 111 18 13 10 49 33 79 50 l56 31 23 118
c22 115 44 233 56 303 3 19 17 94 32 165 30 151 32 161 68 365 25 144 28 205
12 291 -11 59 -71 89 -180 89 -51 0 -56 -2 -83 -37z"/>
<path d="M9625 11658 c-117 -76 -122 -90 -59 -170 25 -32 74 -106 109 -165 75
-128 90 -147 116 -140 10 3 59 31 108 63 l90 57 -15 36 c-38 91 -198 331 -245
367 -11 9 -34 -2 -104 -48z"/>
<path d="M8384 11629 c-11 -13 -39 -85 -61 -159 -250 -822 -435 -1431 -504
-1650 -26 -85 -51 -167 -55 -182 -3 -16 -10 -28 -16 -28 -5 0 -6 -4 -3 -10 3
-5 1 -27 -5 -47 -11 -36 -14 -38 -51 -38 -26 0 -39 4 -39 14 0 10 9 12 35 8
26 -4 35 -2 35 9 0 8 -9 14 -20 14 -11 0 -20 7 -20 15 0 9 -6 12 -15 9 -8 -4
-12 -11 -9 -16 4 -6 3 -13 -2 -17 -5 -3 -22 -45 -37 -93 -27 -84 -28 -116 -5
-102 22 14 70 5 85 -15 13 -20 24 -21 152 -21 124 0 141 2 164 20 29 23 24 8
223 665 70 231 134 444 143 474 9 30 22 56 28 58 18 6 465 -225 601 -310 67
-42 126 -77 130 -76 4 0 61 61 127 134 147 165 149 171 55 228 -109 67 -476
252 -640 322 -85 37 -158 70 -162 74 -4 3 23 108 61 231 37 124 78 257 90 296
17 60 25 73 50 84 16 6 39 22 52 36 19 20 20 28 12 47 -12 26 -33 30 -263 43
-112 6 -115 6 -136 -17z"/>
<path d="M23095 11611 c-116 -74 -125 -94 -77 -164 44 -65 98 -167 118 -225
26 -76 43 -77 153 -11 l88 54 -15 43 c-36 107 -171 342 -196 342 -6 0 -38 -18
-71 -39z"/>
<path d="M15307 11566 c-12 -9 -53 -126 -116 -333 -134 -435 -194 -628 -257
-828 -29 -93 -59 -192 -67 -220 -40 -135 -159 -513 -169 -535 -6 -14 -12 -36
-14 -50 -2 -14 -8 -26 -14 -28 -5 -2 -8 -7 -5 -12 3 -4 1 -19 -4 -32 -9 -22
-10 -22 -11 7 -1 17 -4 24 -7 18 -2 -7 -16 -13 -29 -13 -16 0 -24 -6 -25 -17
0 -15 -2 -15 -8 2 -7 16 -14 2 -35 -63 -14 -46 -26 -87 -26 -93 0 -5 20 -9 45
-9 34 0 48 -5 57 -20 12 -18 24 -20 145 -20 185 0 166 -24 282 360 51 168 117
382 146 475 29 94 65 212 80 263 16 50 32 92 37 92 31 0 368 -183 556 -302 68
-43 125 -78 127 -78 2 0 58 61 124 135 81 90 121 142 121 157 0 19 -17 34 -87
75 -195 114 -478 258 -654 332 l-87 37 45 144 c125 409 133 431 156 439 12 5
35 22 50 39 24 25 27 34 18 50 -13 24 -45 29 -221 37 -110 5 -138 3 -153 -9z"/>
<path d="M11577 11549 c-20 -19 -38 -65 -82 -209 -31 -102 -88 -288 -127 -415
-104 -343 -124 -399 -188 -530 -111 -226 -288 -424 -501 -563 -74 -47 -99 -48
-99 0 0 21 -4 27 -12 21 -7 -4 -18 -8 -25 -9 -6 -1 -19 -7 -30 -13 -17 -10
-17 -10 2 -11 19 -1 19 -1 2 -11 -9 -6 -26 -8 -36 -4 -16 5 -18 2 -14 -15 5
-18 16 -24 65 -32 12 -2 6 -10 -22 -25 -43 -23 -49 -23 -24 1 8 9 11 16 6 16
-5 0 -19 9 -32 20 -23 20 -61 19 -68 -1 -2 -5 -11 -9 -21 -9 -10 0 -44 -13
-77 -29 -32 -15 -93 -39 -134 -51 -79 -24 -123 -57 -135 -100 -5 -19 -4 -21 4
-10 5 8 12 12 16 9 3 -3 -4 -17 -16 -30 l-21 -24 33 -7 c37 -7 53 -2 43 14 -4
7 -2 8 5 4 6 -4 9 -12 5 -17 -3 -5 12 -31 33 -57 22 -26 54 -71 73 -99 18 -29
41 -53 50 -53 24 0 230 83 345 140 348 170 621 408 809 704 54 85 159 307 194
411 29 86 98 310 214 693 50 167 53 174 85 189 40 18 57 46 49 77 -5 22 -12
24 -118 30 -62 3 -138 9 -169 12 -49 5 -58 3 -82 -17z"/>
<path d="M17624 11463 c-242 -330 -629 -696 -970 -916 -93 -60 -102 -85 -47
-136 21 -20 59 -60 83 -89 l45 -53 79 51 c180 118 424 312 596 476 l75 72 362
-7 363 -6 -41 -60 c-175 -253 -374 -475 -599 -666 -123 -105 -326 -252 -347
-252 -7 0 -13 -4 -13 -8 0 -4 -26 -24 -57 -43 -41 -26 -66 -35 -85 -32 -15 2
-27 1 -27 -2 3 -21 -3 -32 -22 -43 -15 -8 -19 -8 -15 0 4 6 0 11 -8 11 -9 0
-16 7 -16 16 0 8 -6 21 -13 28 -11 11 -17 11 -30 1 -9 -7 -17 -17 -17 -24 0
-7 -9 -9 -26 -5 -18 5 -25 3 -21 -3 4 -7 -9 -14 -31 -18 -20 -4 -44 -13 -52
-20 -18 -16 -91 -49 -143 -65 -22 -7 -35 -16 -30 -23 4 -6 0 -8 -9 -4 -24 9
-54 -32 -62 -82 l-7 -44 43 6 c24 2 38 3 31 0 -8 -3 2 -23 28 -56 47 -59 92
-146 85 -164 -7 -16 17 -7 169 65 434 205 766 442 1101 783 216 221 379 423
564 697 45 67 86 122 90 122 12 0 60 52 60 64 0 6 -19 24 -43 40 -23 16 -65
46 -93 68 -47 35 -53 37 -84 27 -23 -8 -131 -10 -377 -6 -190 3 -347 7 -349 9
-1 2 29 42 68 88 38 47 75 92 82 101 6 8 26 21 45 27 62 22 90 64 59 90 -13 9
-286 92 -305 92 -6 0 -46 -48 -89 -107z"/>
<path d="M22703 11522 c-91 -59 -98 -79 -50 -153 19 -30 46 -78 61 -107 l27
-53 -753 7 -753 7 -21 -24 c-25 -27 -87 -211 -82 -243 3 -20 11 -21 153 -27
83 -4 401 -7 708 -8 352 -1 557 -5 557 -11 0 -15 -97 -177 -169 -280 -159
-229 -360 -437 -586 -607 -98 -74 -272 -183 -291 -183 -8 0 -14 -4 -14 -9 0
-14 -62 -36 -92 -32 -32 3 -51 -6 -42 -20 4 -6 11 -6 20 2 8 6 14 7 14 3 0
-18 -40 -34 -70 -27 -41 8 -50 31 -22 54 40 32 23 29 -37 -6 -33 -19 -66 -35
-75 -35 -8 0 -32 -8 -53 -17 -103 -45 -122 -55 -127 -66 -5 -9 -7 -9 -12 0 -5
12 -17 10 -107 -22 -35 -12 -57 -30 -82 -62 -19 -25 -35 -53 -35 -62 1 -13 3
-12 16 4 16 19 16 19 10 -5 -3 -14 -3 -19 0 -12 9 18 35 14 55 -9 10 -12 39
-64 65 -118 26 -53 49 -98 50 -99 9 -12 330 116 478 190 205 102 332 181 501
307 368 277 691 659 960 1136 31 55 69 110 86 123 37 30 38 64 2 87 -25 17
-25 19 -9 31 14 10 16 20 11 46 -18 83 -175 349 -205 347 -8 0 -47 -22 -87
-47z"/>
<path d="M9191 11431 c-100 -68 -116 -99 -77 -141 40 -42 154 -219 177 -276
33 -78 50 -79 167 -3 54 34 99 63 100 65 8 6 -77 164 -128 240 -63 93 -131
174 -145 173 -5 0 -48 -26 -94 -58z"/>
<path d="M10363 11433 c-13 -11 -32 -52 -48 -108 -45 -148 -133 -437 -200
-655 -35 -113 -68 -221 -73 -240 -6 -19 -26 -87 -46 -149 -48 -156 -52 -152
147 -149 l149 3 68 220 c37 121 118 387 180 592 109 355 115 373 142 384 43
18 70 56 56 79 -14 22 -48 27 -228 35 -111 5 -127 4 -147 -12z"/>
<path d="M19342 11423 c-26 -23 -93 -231 -81 -254 7 -13 45 -17 265 -22 142
-4 456 -7 699 -7 431 0 442 0 460 20 26 29 86 230 75 251 -8 14 -57 16 -431
22 -232 4 -545 7 -695 7 -244 0 -274 -2 -292 -17z"/>
<path d="M14140 11350 c-37 -19 -205 -20 -1381 -6 -419 5 -381 19 -432 -156
-26 -89 -32 -121 -23 -132 16 -19 261 -26 984 -26 325 0 592 -4 592 -9 0 -12
-106 -185 -162 -265 -114 -159 -187 -246 -328 -386 -169 -169 -473 -402 -501
-384 -7 4 -9 3 -5 -4 6 -11 -17 -27 -124 -85 -148 -80 -164 -87 -184 -81 -14
3 -17 2 -8 -3 9 -7 2 -14 -23 -26 -41 -19 -49 -21 -40 -8 3 5 1 12 -5 16 -5 3
-10 -3 -10 -13 0 -14 -13 -25 -40 -36 -50 -20 -50 -20 -50 2 0 14 2 15 10 2 7
-11 10 -11 10 -2 0 7 4 11 8 8 4 -2 14 -1 21 4 21 13 5 40 -24 40 -15 0 -24 4
-20 10 4 7 -2 7 -18 1 -14 -6 -27 -7 -30 -4 -4 3 -13 -2 -22 -11 -9 -9 -25
-16 -36 -16 -12 0 -17 -4 -14 -11 4 -6 1 -10 -6 -8 -30 4 -34 -2 -31 -42 5
-46 -1 -54 -43 -62 -27 -6 -28 -5 -7 5 17 9 22 20 22 50 0 21 -3 38 -7 38 -26
0 -153 -53 -180 -75 -26 -20 -33 -33 -33 -60 0 -35 22 -50 33 -22 3 6 6 1 7
-13 1 -14 4 -19 7 -12 6 14 32 -30 91 -150 20 -43 43 -78 49 -78 19 0 285 97
383 140 529 233 941 547 1300 990 135 167 282 386 393 585 27 49 65 104 85
121 51 44 41 69 -45 116 -37 21 -81 46 -98 57 -29 19 -31 19 -65 1z"/>
<path d="M18913 10800 c-19 -11 -33 -41 -60 -124 -19 -61 -32 -118 -29 -130
l6 -23 361 -6 c199 -4 538 -7 752 -7 l389 0 -17 -27 c-159 -245 -418 -479
-707 -636 -75 -41 -83 -43 -74 -22 3 8 3 15 0 15 -2 0 -9 -12 -14 -26 -7 -16
-16 -24 -24 -21 -8 3 -17 1 -20 -6 -3 -9 -5 -9 -5 1 -1 6 -6 12 -12 12 -6 0
-9 -6 -6 -14 6 -14 -16 -27 -86 -52 -21 -7 -35 -9 -32 -4 3 6 -2 10 -12 10
-15 0 -16 2 -3 10 10 6 16 6 18 0 2 -6 11 -6 23 1 11 5 24 7 29 4 6 -3 10 5
10 18 0 34 -36 48 -90 35 -28 -7 -37 -13 -28 -19 10 -7 10 -11 0 -21 -10 -10
-14 -10 -21 1 -11 18 -55 7 -82 -20 -13 -13 -27 -18 -41 -13 -11 3 -37 -1 -57
-9 -20 -8 -72 -23 -116 -33 -92 -20 -130 -37 -139 -59 -9 -23 -8 -27 6 -19 7
4 8 3 4 -4 -4 -7 -13 -12 -21 -12 -12 0 -25 -21 -25 -42 0 -6 13 -8 29 -6 17
2 30 2 29 -1 -2 -20 5 -19 28 6 25 28 25 28 9 2 -15 -25 -14 -29 13 -81 16
-30 35 -78 43 -107 8 -31 18 -51 27 -51 8 0 60 13 116 30 712 207 1161 532
1546 1120 48 74 104 151 124 171 57 56 50 76 -42 127 l-77 43 -849 2 c-740 2
-852 0 -873 -13z"/>
<path d="M28401 10676 l-63 -66 -23 -117 c-39 -200 -120 -565 -154 -698 -11
-44 -21 -90 -21 -102 0 -12 -4 -24 -9 -27 -5 -4 -12 -25 -16 -49 -4 -23 -22
-107 -41 -187 -19 -80 -48 -203 -64 -275 -17 -71 -37 -158 -46 -192 -9 -34
-13 -67 -9 -72 3 -6 2 -11 -3 -11 -5 0 -15 -24 -21 -52 -26 -115 -29 -124 -30
-100 0 13 3 42 9 65 9 44 45 236 55 297 3 19 22 118 41 220 41 214 110 589
118 640 10 67 -34 -116 -68 -280 -19 -91 -51 -239 -71 -330 -20 -91 -45 -205
-55 -255 -23 -109 -46 -204 -65 -265 -7 -25 -16 -58 -20 -75 -7 -27 -8 -28
-15 -10 -8 19 -9 19 -9 -2 -1 -13 -5 -23 -10 -23 -11 0 -41 -73 -42 -103 l0
-22 -16 23 c-8 12 -21 22 -28 22 -15 0 -25 22 -25 52 0 18 -4 20 -42 15 -60
-8 -98 1 -98 24 0 19 -16 19 -580 17 -535 -3 -580 -2 -580 14 0 9 -14 28 -31
42 l-31 26 -855 0 c-963 0 -891 6 -935 -79 -17 -34 -24 -40 -27 -25 -2 10 -8
22 -15 26 -17 11 -356 10 -356 -1 0 -5 -9 -13 -20 -16 -11 -3 -20 -13 -20 -21
0 -8 -4 -14 -9 -14 -9 0 -70 -184 -153 -455 -17 -55 -34 -107 -39 -116 -4 -9
-13 -36 -20 -60 -7 -24 -13 -46 -14 -49 -1 -3 -5 -18 -9 -35 -19 -77 -24 -82
-70 -81 -33 1 -43 5 -40 16 1 8 3 15 4 15 1 0 4 14 6 30 3 17 9 32 15 33 5 2
7 8 3 13 -3 5 2 30 12 55 13 35 21 44 36 41 10 -3 16 -1 12 4 -3 5 -11 9 -19
9 -11 0 -12 7 -4 33 6 17 20 65 31 105 17 60 24 72 42 73 18 1 18 2 3 6 -14 4
-17 11 -13 26 3 12 6 26 6 30 0 5 5 5 12 1 7 -4 8 -3 4 5 -4 7 13 83 39 169
l47 157 52 -1 c51 -1 52 -1 48 27 -2 15 -15 38 -29 51 l-25 23 -529 2 c-291 1
-529 -1 -529 -5 0 -4 -11 -19 -25 -34 -14 -15 -25 -31 -24 -35 1 -4 1 -15 0
-23 -1 -12 -4 -12 -15 2 -11 15 -37 18 -212 20 -195 3 -199 3 -209 25 -23 54
-27 54 -582 51 -586 -3 -537 5 -574 -99 -11 -30 -17 -42 -14 -28 9 48 -9 50
-392 47 -193 -2 -349 1 -346 5 2 4 -7 5 -22 1 -15 -4 -30 -2 -34 3 -7 12 -305
51 -471 62 -63 4 -424 8 -801 10 -766 3 -743 4 -776 -63 -9 -19 -20 -33 -24
-31 -3 3 -12 -2 -19 -10 -16 -19 -40 -19 -40 0 0 8 -7 15 -15 15 -8 0 -20 10
-26 23 -6 12 -21 31 -33 42 -20 19 -36 20 -636 23 l-615 2 -26 -24 c-15 -14
-30 -22 -33 -18 -4 3 -4 -1 0 -11 3 -9 1 -23 -5 -31 -6 -7 -9 -15 -7 -17 2 -2
-20 -4 -50 -4 -48 0 -54 2 -54 21 0 11 -14 33 -31 50 l-30 29 -597 3 c-393 2
-606 -1 -626 -8 -20 -7 -33 -7 -40 0 -11 11 -2544 13 -2586 1 -14 -4 -32 -20
-40 -36 -8 -17 -19 -33 -23 -36 -5 -3 -8 -9 -7 -13 1 -4 -1 -12 -3 -19 -3 -6
-6 -2 -6 11 -1 22 -3 22 -136 22 -83 0 -135 -4 -135 -10 0 -15 -157 -13 -164
3 -3 8 -11 5 -24 -10 -19 -21 -20 -21 -39 -4 -22 21 -163 91 -183 91 -6 0 -26
6 -43 14 -48 21 -188 53 -317 72 -137 20 -467 15 -590 -9 -146 -29 -236 -49
-285 -64 -149 -47 -219 -73 -225 -83 -5 -8 -191 -11 -670 -10 -572 0 -666 2
-680 15 -9 8 -19 15 -23 15 -4 0 -30 11 -59 24 -78 35 -132 53 -238 76 -52 12
-113 27 -135 33 -55 16 -524 16 -585 0 -25 -6 -74 -17 -110 -24 -36 -6 -90
-18 -120 -26 -119 -32 -175 -49 -185 -55 -5 -3 -30 -11 -55 -18 -25 -7 -47
-15 -50 -19 -21 -27 -142 -58 -126 -32 3 4 17 6 31 3 20 -3 24 -1 19 12 -5 14
-43 16 -358 16 -206 0 -366 -4 -387 -10 -28 -8 -39 -17 -44 -38 -7 -25 -8 -25
-15 -7 -6 16 -12 4 -29 -51 -11 -39 -21 -78 -21 -86 0 -8 -4 -18 -9 -24 -5 -5
-21 -49 -35 -99 -15 -49 -36 -117 -47 -150 -12 -33 -22 -64 -23 -70 -2 -5 -6
-17 -9 -25 -3 -8 -18 -55 -33 -103 -21 -68 -30 -87 -42 -82 -12 4 -13 3 -3 -9
10 -12 10 -22 0 -49 -10 -28 -16 -33 -38 -30 l-26 3 28 -11 c33 -13 26 -30
-11 -25 -15 2 -20 1 -12 -1 8 -3 20 -11 26 -19 17 -21 -4 -74 -25 -67 -12 4
-13 3 -3 -5 18 -12 5 -65 -14 -58 -8 3 -14 1 -14 -3 0 -5 5 -11 11 -13 7 -2 7
-11 0 -28 -5 -14 -10 -19 -10 -12 -1 7 -17 20 -37 28 -36 15 -42 42 -8 36 18
-3 18 -3 -1 13 l-20 17 20 -7 c14 -4 17 -3 9 5 -12 12 10 117 28 135 8 7 8 6
3 -4 -6 -10 -4 -12 4 -7 8 5 9 12 2 20 -13 15 -3 56 12 52 7 -2 9 -1 5 1 -12
7 -10 19 18 109 15 46 30 81 35 78 5 -3 6 2 3 10 -5 13 54 221 181 641 80 262
99 327 191 630 53 176 102 339 109 363 l13 42 -599 0 -598 0 -21 -72 c-47
-162 -54 -184 -63 -195 -5 -7 -7 -13 -4 -13 4 0 3 -10 -2 -22 -8 -22 -41 -35
-41 -15 0 6 -7 19 -16 29 -16 17 -18 17 -30 -8 -8 -15 -16 -36 -19 -48 -3 -11
-19 -64 -36 -116 -17 -52 -56 -174 -86 -270 -31 -96 -59 -184 -63 -195 -4 -11
-18 -51 -29 -90 -24 -79 -50 -131 -51 -102 0 15 -13 17 -130 17 -74 0 -130 4
-130 9 0 5 12 12 28 14 19 3 14 5 -18 7 -25 1 -48 2 -52 1 -5 0 -8 10 -8 24 0
14 6 25 13 25 8 0 9 3 1 8 -7 5 -15 173 -23 507 -7 274 -13 501 -15 502 -2 2
-783 4 -1136 3 l-56 0 -28 -97 c-16 -54 -34 -107 -40 -118 -5 -11 -9 -25 -8
-31 1 -7 -4 -14 -13 -18 -8 -3 -15 -1 -15 4 0 19 -39 10 -45 -11 -4 -11 -9
-18 -12 -15 -12 12 -32 -30 -26 -54 3 -14 2 -22 -2 -18 -8 8 -23 -35 -114
-322 -88 -278 -114 -355 -122 -365 -5 -6 -11 -30 -15 -54 -5 -30 -10 -39 -17
-32 -6 6 -19 11 -29 11 -10 0 -18 7 -18 15 0 13 -53 15 -415 15 -360 0 -415
-2 -415 -15 0 -19 -34 -27 -93 -22 -43 4 -49 2 -68 -25 -12 -16 -31 -40 -43
-52 -11 -12 -28 -33 -36 -46 -8 -12 -27 -34 -42 -48 -16 -14 -28 -32 -28 -39
0 -17 -50 -106 -62 -111 -4 -2 -8 -10 -8 -18 0 -8 -5 -14 -11 -14 -6 0 -9 7
-6 15 4 8 11 42 18 77 6 35 15 72 19 83 13 30 22 76 24 113 0 17 4 32 8 32 4
0 7 10 6 23 -1 13 3 36 9 53 6 16 17 54 23 84 7 30 18 75 26 100 116 380 295
989 299 1015 2 11 8 33 14 48 14 35 14 40 1 32 -6 -3 -10 5 -10 19 0 13 5 26
12 28 8 3 8 9 1 22 -14 26 7 90 -385 -1149 -157 -495 -193 -609 -254 -794 -35
-106 -64 -200 -64 -207 0 -8 -4 -22 -9 -32 -10 -19 -106 -320 -145 -452 -14
-47 -41 -134 -60 -195 -20 -60 -36 -116 -36 -122 0 -10 148 -13 709 -13 l710
0 -15 -52 c-17 -60 -133 -440 -199 -653 -24 -77 -91 -297 -150 -490 -182 -598
-191 -626 -200 -618 -4 5 -5 3 -1 -4 9 -17 -14 -103 -29 -103 -6 0 -12 7 -12
15 0 8 6 15 14 15 7 0 13 7 13 15 0 8 -9 15 -19 15 -11 0 -22 4 -26 10 -13 21
-34 -2 -29 -33 3 -26 2 -28 -5 -12 -7 15 -10 16 -10 4 -1 -9 -25 -90 -54 -180
-30 -90 -67 -209 -84 -264 -86 -279 -106 -343 -119 -378 -8 -20 -14 -47 -14
-58 0 -19 4 -20 37 -14 21 4 310 10 643 12 332 2 608 7 611 11 4 4 57 171 118
372 60 201 140 464 176 585 196 649 245 810 342 1130 58 193 108 355 112 362
3 6 5 -160 4 -370 -4 -598 -17 -1595 -21 -1561 -3 27 -6 30 -27 26 -25 -4 -29
9 -38 118 -4 57 -19 -507 -15 -605 3 -93 12 -107 47 -81 9 7 226 13 655 16
l640 5 78 260 c43 143 112 373 154 510 78 257 129 425 254 840 40 132 98 326
130 430 32 105 63 206 68 225 47 167 160 530 166 530 0 0 19 -7 41 -15 29 -10
90 -14 229 -15 146 0 187 -3 183 -12 -9 -26 -97 -310 -172 -558 -42 -140 -92
-303 -111 -362 -95 -300 -224 -766 -256 -923 -11 -55 -24 -101 -28 -103 -8 -3
-3 -212 7 -282 4 -25 7 -52 8 -60 0 -8 5 -24 11 -35 6 -11 19 -43 28 -72 33
-101 139 -235 239 -302 106 -72 256 -128 413 -157 140 -25 454 -25 619 0 525
80 981 396 1209 836 79 154 196 480 331 925 20 66 82 269 137 450 55 182 103
339 105 350 3 11 25 84 49 163 24 79 44 146 44 149 0 3 18 3 40 1 23 -2 40 1
40 7 0 5 4 5 8 -2 5 -8 41 -13 99 -15 l91 -3 -55 -180 c-30 -99 -84 -277 -120
-395 -36 -118 -96 -318 -135 -445 -102 -334 -125 -413 -143 -480 -18 -72 -70
-303 -80 -360 -4 -22 -11 -46 -17 -52 -6 -7 -7 -20 -4 -29 3 -9 1 -56 -6 -105
l-12 -89 -32 0 c-29 0 -33 3 -37 33 -2 17 -4 -11 -4 -63 0 -52 2 -76 4 -53 4
42 5 43 39 43 32 0 34 -2 34 -34 0 -24 -5 -36 -17 -39 -14 -4 -12 -5 5 -6 16
-1 22 -7 22 -24 0 -12 9 -54 19 -92 11 -38 17 -74 14 -79 -3 -5 -2 -6 4 -3 5
3 22 -19 38 -50 63 -120 236 -247 420 -308 245 -83 635 -96 950 -34 210 42
442 142 650 280 132 88 318 268 388 375 129 200 234 457 383 934 35 113 64
208 64 213 0 4 -256 7 -568 7 l-568 0 -74 -242 c-109 -358 -145 -469 -152
-463 -3 3 -8 -1 -12 -10 -4 -11 -2 -14 6 -9 8 5 9 2 4 -12 -5 -10 -11 -27 -13
-37 -4 -11 -12 -16 -23 -12 -19 6 -62 -7 -61 -18 3 -26 0 -29 -13 -18 -11 9
-15 6 -21 -16 -12 -50 -65 -131 -99 -152 -20 -13 -51 -21 -77 -21 -39 -1 -46
-5 -67 -37 -17 -26 -19 -34 -7 -30 9 4 15 1 15 -9 0 -13 -4 -13 -30 1 -45 23
-53 48 -47 139 6 85 45 235 147 571 33 110 92 306 131 435 39 129 97 321 129
425 32 105 75 246 95 315 57 191 96 304 108 315 7 6 8 6 5 1 -4 -5 7 -16 24
-25 38 -19 46 -37 21 -44 -10 -3 59 -5 154 -6 l172 -1 -15 -52 c-9 -29 -28
-93 -44 -143 -15 -49 -31 -100 -35 -112 l-6 -23 570 0 c314 0 571 2 571 4 0
11 92 304 102 322 9 19 15 21 42 13 17 -5 188 -9 379 -9 327 0 348 -1 343 -17
-12 -43 -146 -483 -262 -863 -69 -228 -132 -435 -139 -460 -7 -25 -35 -117
-63 -205 -27 -88 -53 -175 -56 -192 -4 -18 -11 -33 -16 -33 -4 0 -8 -6 -7 -12
1 -38 -4 -48 -25 -48 -17 0 -19 -3 -10 -12 15 -15 15 -45 0 -54 -8 -5 -9 -2
-5 9 3 10 2 17 -2 17 -5 0 -17 3 -27 7 -12 4 -15 3 -10 -5 4 -7 0 -19 -8 -28
-9 -8 -16 -12 -16 -7 -1 15 -29 -43 -50 -105 -12 -34 -19 -66 -15 -72 3 -5 2
-10 -3 -10 -8 0 -45 -103 -58 -165 -4 -16 -21 -75 -39 -130 -32 -97 -91 -288
-116 -372 -16 -56 -9 -71 30 -65 17 2 34 8 37 13 3 5 259 9 583 9 l578 0 38
128 c20 70 54 183 75 252 57 183 320 1057 335 1110 49 175 386 1277 404 1324
11 28 12 28 26 10 13 -18 34 -19 389 -22 272 -2 376 -6 376 -14 0 -6 -9 -41
-20 -77 -36 -117 -146 -479 -220 -726 -40 -132 -89 -296 -111 -365 -48 -157
-132 -454 -167 -587 -14 -56 -30 -99 -35 -96 -5 3 -6 -4 -2 -16 4 -12 2 -28
-5 -35 -6 -8 -10 -18 -8 -22 1 -8 -5 -78 -17 -189 -2 -11 4 -62 11 -114 8 -51
11 -98 7 -105 -3 -6 -2 -8 2 -3 5 4 20 -24 35 -61 57 -147 167 -258 343 -345
178 -88 333 -124 587 -134 291 -12 555 34 795 137 215 92 398 224 557 403 170
191 243 343 386 792 66 207 200 646 227 745 36 129 236 780 250 813 10 24 20
35 28 31 9 -5 9 -4 1 5 -12 13 -7 51 6 51 4 0 5 11 2 25 -5 29 -3 30 44 10 33
-14 36 -18 31 -47 -3 -18 -8 -43 -12 -55 -7 -22 -6 -22 108 -25 l114 -3 -32
-105 c-18 -58 -65 -213 -105 -345 -39 -132 -76 -251 -80 -265 -5 -14 -22 -70
-39 -125 -48 -162 -191 -632 -221 -730 -79 -258 -94 -301 -102 -310 -6 -6 -8
-5 -6 5 2 9 -6 16 -19 18 -15 2 -23 10 -23 22 0 10 -4 22 -10 25 -6 3 -7 -1
-4 -10 4 -8 2 -21 -4 -28 -18 -21 -54 -136 -46 -148 3 -6 2 -14 -3 -18 -9 -6
-68 -179 -112 -326 -39 -134 -93 -310 -112 -367 -21 -62 -25 -113 -9 -103 6 3
10 2 10 -3 0 -5 11 -7 25 -4 14 2 25 8 25 13 0 5 258 10 582 11 l581 3 13 40
c13 41 233 771 330 1095 31 102 84 280 119 395 35 116 79 261 97 324 l33 114
80 -6 c154 -10 203 -50 190 -156 -14 -115 -54 -269 -145 -561 -29 -91 -59
-191 -67 -222 -9 -32 -20 -58 -25 -58 -5 0 -6 -5 -3 -10 4 -6 1 -27 -6 -48 -7
-20 -14 -32 -16 -25 -2 7 1 21 7 32 7 14 7 21 0 21 -5 0 -10 7 -10 15 0 8 -9
15 -20 15 -12 0 -20 -7 -20 -16 0 -11 -5 -14 -16 -10 -12 5 -15 2 -10 -10 4
-9 3 -22 -2 -28 -14 -19 -145 -429 -243 -764 -48 -162 -46 -173 19 -154 28 9
194 12 568 12 l529 0 114 378 c365 1207 406 1358 398 1477 -6 96 -53 207 -114
269 -50 51 -166 112 -268 142 l-60 18 50 8 c389 62 532 165 694 500 46 96 70
136 80 133 10 -4 11 -2 3 8 -17 20 24 146 52 157 20 8 20 9 1 10 -12 1 -15 4
-7 7 13 5 82 -23 82 -33 0 -3 -10 -2 -22 1 -22 7 -22 6 -4 -7 18 -14 18 -17
-13 -104 -18 -49 -39 -104 -47 -122 -8 -18 -14 -35 -14 -37 0 -3 54 -5 120 -5
81 0 120 -4 120 -11 0 -6 -30 -109 -66 -228 -36 -119 -90 -295 -119 -391 -29
-96 -83 -274 -120 -395 -37 -121 -73 -240 -80 -265 -31 -101 -98 -322 -131
-423 -19 -60 -34 -115 -34 -123 0 -8 -3 -13 -7 -11 -5 3 -9 -11 -10 -31 -2
-40 -26 -72 -38 -51 -5 8 -4 10 3 5 7 -4 12 -4 12 1 0 17 -16 30 -42 35 -22 4
-27 1 -31 -21 -3 -14 -16 -57 -30 -96 -14 -38 -28 -83 -33 -100 -9 -35 -9 -36
-17 -55 -4 -8 -27 -85 -52 -170 -26 -85 -55 -180 -65 -210 -30 -91 -61 -197
-67 -233 -4 -29 -2 -35 16 -40 12 -3 24 -1 27 4 3 5 216 9 502 9 l497 0 54
178 c51 166 116 384 181 602 74 252 296 987 325 1080 l33 105 1 -677 1 -678
-35 0 c-26 0 -35 -4 -36 -17 0 -10 -6 0 -14 22 -11 35 -13 -3 -14 -293 -1
-252 2 -331 11 -326 8 5 9 1 4 -12 -6 -15 -5 -17 5 -6 7 6 24 12 37 12 13 0
21 3 19 8 -3 4 225 7 506 7 l511 0 37 120 c74 240 395 1307 411 1365 5 19 36
123 68 230 33 107 103 339 155 515 186 618 186 618 199 596 4 -6 17 -11 30
-11 12 0 26 -4 32 -10 5 -5 89 -11 186 -12 l176 -3 -49 -115 c-27 -63 -69
-160 -93 -215 -24 -55 -72 -165 -106 -245 -35 -80 -97 -221 -138 -315 -236
-541 -337 -774 -346 -798 -3 -10 -10 -16 -15 -13 -5 4 -8 -2 -7 -11 4 -23 -14
-63 -27 -63 -6 0 -7 -3 -4 -7 4 -3 -1 -15 -10 -26 -10 -11 -12 -17 -5 -13 10
6 10 2 0 -18 -11 -26 -28 -35 -28 -15 0 5 -4 7 -10 4 -5 -3 -10 3 -10 14 0 10
6 22 13 24 10 4 10 6 0 6 -7 1 -13 8 -13 16 0 27 -17 16 -35 -24 -9 -22 -14
-45 -10 -52 5 -7 4 -10 -2 -6 -10 7 -33 -33 -33 -57 0 -8 -11 -38 -25 -68 -14
-29 -25 -63 -25 -75 0 -12 -3 -23 -7 -25 -5 -1 -16 -25 -26 -53 -11 -27 -30
-79 -44 -115 -13 -36 -33 -90 -43 -120 -10 -30 -44 -121 -74 -202 -31 -81 -59
-161 -62 -178 l-6 -30 605 0 606 0 31 83 c18 45 62 161 100 257 37 96 92 237
121 313 l52 137 199 0 c109 0 198 -3 198 -7 0 -5 -15 -20 -33 -35 -88 -73 -81
-59 -127 -263 -23 -104 -53 -239 -67 -300 -13 -60 -27 -134 -30 -163 l-6 -53
29 7 c16 4 33 11 39 15 5 5 275 9 601 9 l591 0 8 42 c4 24 9 59 11 78 3 19 34
224 69 455 61 403 118 783 261 1740 36 242 68 451 72 465 6 19 14 25 35 24 15
0 376 -1 802 -2 l775 -2 -5 -22 c-2 -13 -41 -210 -85 -438 -44 -228 -87 -442
-95 -475 -8 -33 -30 -139 -50 -235 -35 -172 -48 -231 -81 -360 -8 -36 -18 -83
-21 -105 -3 -22 -9 -42 -12 -45 -8 -5 -41 -128 -66 -245 -9 -38 -25 -110 -36
-160 -20 -92 -22 -103 -39 -190 -5 -27 -21 -104 -35 -170 -14 -66 -28 -129
-30 -140 -2 -11 -22 -112 -45 -225 -22 -113 -48 -241 -56 -285 -9 -44 -22
-111 -30 -150 -7 -38 -25 -131 -38 -205 -54 -299 -69 -355 -104 -378 -23 -15
-68 -18 -386 -22 -336 -5 -361 -6 -364 -23 -2 -10 -15 -29 -28 -42 l-25 -25
-11 24 c-10 24 -41 40 -53 28 -3 -4 -5 -307 -4 -675 1 -608 0 -671 -15 -686
-15 -15 -337 -16 -4174 -21 -2286 -3 -4159 -6 -4162 -8 -2 -1 1 -7 8 -14 20
-20 14 -28 -34 -48 -41 -18 -68 -20 -257 -19 -236 1 -270 7 -302 57 -19 30
-22 31 -95 31 -41 1 -99 -6 -128 -13 -46 -13 -58 -13 -87 0 -30 12 -648 14
-4423 14 -2414 0 -4392 -3 -4395 -7 -4 -3 -1 -13 5 -20 10 -12 6 -20 -19 -41
-17 -15 -45 -35 -62 -44 -30 -16 -31 -20 -31 -80 1 -83 26 -140 71 -159 29
-12 1295 -14 9214 -14 8630 0 9182 1 9216 17 37 17 55 46 63 103 2 17 5 314 5
662 l1 631 383 5 c411 4 442 8 475 55 19 26 57 160 67 232 2 19 9 53 14 75 5
22 12 60 15 85 3 25 13 77 21 115 20 93 39 188 75 380 63 332 92 481 100 515
5 19 14 64 20 100 6 36 15 83 20 105 5 22 13 67 19 100 6 33 20 105 31 160 10
55 21 113 24 128 3 15 12 60 20 100 12 61 64 333 79 417 3 14 11 59 20 100 8
41 17 86 20 100 2 14 11 59 20 100 8 41 25 127 37 190 11 63 27 145 35 182 8
36 17 83 20 105 3 21 10 56 15 78 22 99 39 184 45 225 4 25 20 110 35 190 16
80 45 231 65 335 20 105 52 269 71 365 45 231 67 341 104 540 17 91 37 194 45
230 18 83 91 465 105 550 5 36 15 81 20 100 5 19 19 87 30 150 12 63 25 131
29 150 8 30 33 158 47 240 3 14 16 84 30 155 29 147 48 242 70 365 9 47 19
103 24 125 4 22 15 79 24 126 9 48 25 128 36 180 22 103 25 236 7 288 -18 52
-50 69 -142 76 l-80 6 -64 -65z m-12821 -1974 c0 -8 -18 -71 -39 -141 -22 -69
-63 -202 -91 -296 -29 -93 -57 -181 -63 -195 -5 -14 -12 -36 -14 -49 -2 -13
-11 -42 -19 -65 -8 -23 -16 -45 -18 -51 -11 -45 -18 -53 -39 -49 l-22 5 23
-12 c26 -14 22 -41 -12 -76 -21 -22 -25 -22 -338 -24 -174 0 -320 1 -325 3 -4
3 -16 8 -26 11 -15 6 -17 3 -12 -15 4 -11 19 -31 34 -44 14 -13 20 -24 13 -24
-7 0 -10 -4 -7 -10 3 -5 -1 -10 -9 -10 -8 0 -18 5 -21 10 -3 6 -14 10 -23 10
-10 0 -3 -7 16 -16 17 -9 32 -20 32 -25 0 -13 -5 -11 -44 12 -20 12 -36 16
-36 10 0 -6 16 -17 35 -25 39 -17 38 -16 26 -49 -10 -25 -29 -28 -64 -12 -14
6 -17 16 -14 39 7 47 18 86 26 86 3 0 7 10 8 23 1 12 7 43 14 70 l12 47 340 0
c330 0 339 0 344 20 3 11 9 20 13 20 5 0 6 8 4 18 -5 25 38 145 55 150 9 3 11
0 6 -8 -6 -9 -4 -11 5 -5 10 6 10 10 -3 20 -15 11 -14 17 3 76 10 35 24 83 30
107 6 23 15 40 20 37 6 -3 7 0 4 8 -5 13 12 78 68 257 11 36 27 91 35 123 15
54 17 57 44 55 17 -1 29 -8 29 -16z m1314 7 c3 -3 -16 -70 -43 -149 -43 -131
-113 -347 -116 -360 -10 -42 -19 -72 -32 -105 -8 -22 -17 -51 -19 -64 -6 -32
-23 -63 -32 -57 -4 2 -7 -15 -7 -37 0 -56 -33 -157 -51 -157 -7 0 -18 9 -24
20 -6 11 -18 20 -28 19 -14 0 -14 -2 3 -9 19 -8 19 -9 -3 -9 -19 -1 -22 3 -16
27 4 15 9 32 13 37 3 6 7 19 8 30 2 11 11 26 20 33 9 6 12 12 5 12 -13 0 14
103 29 108 5 2 7 7 4 12 -8 13 50 191 60 183 4 -5 5 -2 1 5 -11 18 24 143 37
135 6 -3 7 -1 3 5 -6 9 73 297 88 321 5 7 93 8 100 0z m1461 1 c5 -8 -34 -145
-65 -225 -4 -11 -17 -54 -29 -95 -12 -41 -26 -84 -31 -95 -5 -11 -25 -74 -45
-139 -20 -65 -41 -131 -47 -145 -6 -14 -12 -35 -13 -45 -1 -11 -7 -22 -13 -24
-6 -2 -8 -10 -5 -18 7 -20 -38 -145 -50 -137 -6 4 -8 -1 -3 -12 3 -10 4 -26 1
-36 -6 -17 -8 -17 -21 -4 -9 8 -26 15 -40 15 -22 0 -24 3 -18 28 4 15 11 31
15 37 5 5 9 19 9 32 0 13 7 26 16 30 9 3 11 9 6 12 -15 10 18 111 37 111 13 0
13 2 2 9 -13 8 -8 37 16 101 3 8 8 26 10 39 2 14 9 33 14 43 6 11 12 29 14 40
5 25 50 183 71 248 8 25 28 89 45 143 l30 97 44 0 c24 0 47 -4 50 -10z m8005
-10 l-55 -7 58 -1 c37 -1 56 -6 52 -12 -4 -6 -10 -8 -14 -5 -5 2 -6 -7 -3 -20
2 -14 0 -25 -5 -25 -5 0 -10 -15 -11 -32 -4 -53 -12 -68 -35 -68 -73 1 -95 39
-24 42 l42 1 -43 4 c-23 2 -40 8 -38 12 3 4 6 24 8 44 1 21 5 37 9 37 4 0 5 9
2 20 -5 18 -1 20 53 18 l59 -1 -55 -7z m-17847 -647 c14 -8 7 -22 -9 -16 -13
5 -15 2 -9 -16 8 -26 -17 -50 -52 -51 -41 0 -87 -54 -127 -147 -37 -86 -58
-139 -70 -177 -6 -17 -8 -17 -31 -2 -13 9 -32 16 -41 16 -11 0 -14 5 -9 18 4
9 13 35 20 57 24 75 75 195 99 233 27 44 63 70 121 88 35 11 86 10 108 -3z
m2946 2 c2 -2 0 -17 -4 -32 -5 -15 -9 -32 -9 -38 -1 -5 -27 -13 -58 -16 -81
-9 -108 -34 -161 -154 -25 -55 -48 -112 -51 -128 -6 -27 -7 -27 -36 -12 -16 8
-36 15 -45 15 -8 0 -15 1 -15 3 0 4 40 110 50 132 4 11 19 45 33 75 42 97 93
142 180 160 37 7 106 4 116 -5z m8182 -107 l39 -11 -23 -39 c-21 -38 -24 -39
-59 -34 -30 5 -38 3 -38 -9 0 -8 -8 -15 -17 -15 -15 0 -15 -2 -4 -9 12 -8 11
-17 -6 -58 -12 -26 -23 -62 -26 -80 -3 -17 -9 -37 -13 -44 -4 -7 -9 -24 -10
-37 -2 -13 -7 -29 -12 -35 -5 -7 -13 -27 -17 -44 -7 -35 -15 -39 -46 -22 -15
7 -24 7 -35 -2 -10 -8 -14 -8 -14 0 0 6 5 11 11 11 5 0 8 4 5 8 -3 5 1 28 8
53 9 30 19 44 30 43 9 -1 16 2 16 7 0 5 -8 9 -17 9 -10 0 -14 4 -8 8 6 4 10
14 10 22 0 9 9 15 22 14 12 0 20 3 17 8 -3 4 -12 8 -20 8 -8 0 -14 5 -14 11 0
7 7 8 18 4 37 -15 55 -14 22 1 -32 15 -33 17 -15 24 12 4 26 15 33 23 11 13
10 17 -7 27 -12 6 -21 16 -21 22 0 10 10 9 55 -7 11 -3 7 1 -10 11 -16 9 -31
18 -32 19 -3 2 27 106 34 118 7 11 101 8 144 -5z m4159 -69 c0 -5 -4 -7 -10
-4 -5 3 -10 4 -10 0 0 -3 11 -10 24 -15 28 -10 27 -13 -13 -119 -11 -30 -18
-58 -14 -64 3 -5 -4 -7 -18 -3 -21 6 -21 5 -6 -4 24 -15 11 -33 -14 -19 -11 6
-27 8 -34 5 -8 -3 -17 -1 -20 4 -4 6 -1 10 5 10 6 0 8 5 5 10 -3 6 2 11 12 11
17 1 17 2 0 6 -12 3 -16 10 -12 21 4 10 9 29 12 45 3 15 10 30 14 33 5 3 9 16
9 29 0 23 25 42 35 26 5 -9 45 -22 45 -15 0 6 -53 28 -62 26 -13 -3 -9 16 5
21 22 9 47 7 47 -4z m-10370 -44 c0 -2 -25 -23 -55 -45 l-54 -40 -292 0 c-273
0 -291 1 -284 18 4 9 12 29 17 45 l10 27 329 0 c181 0 329 -2 329 -5z m11739
-281 c-11 -38 -25 -78 -29 -89 -12 -30 -100 -309 -100 -317 0 -5 14 -8 31 -8
24 0 29 -4 25 -17 -18 -67 -169 -802 -211 -1033 -9 -47 -21 -106 -26 -132
l-11 -48 -189 0 c-104 0 -189 4 -189 9 0 14 128 337 238 601 112 270 254 604
273 640 9 19 35 78 57 130 22 52 58 133 80 180 21 47 44 102 51 123 7 21 15
36 17 34 3 -2 -5 -35 -17 -73z m-8719 -303 c0 -9 -8 -11 -26 -7 -17 5 -23 3
-19 -4 3 -5 13 -10 21 -10 18 0 18 -19 -1 -44 -31 -42 -22 -46 101 -46 105 0
115 -2 110 -17 -3 -10 -25 -83 -50 -163 -24 -80 -85 -282 -136 -450 -50 -168
-113 -375 -140 -460 -64 -206 -157 -518 -166 -552 -3 -16 -9 -26 -13 -24 -3 2
-7 -12 -8 -32 -1 -19 -12 -49 -24 -65 -12 -16 -17 -27 -10 -23 13 8 14 4 5
-18 -3 -9 -14 -16 -23 -17 -10 0 -11 -2 -3 -6 23 -9 12 -25 -13 -19 -14 4 -25
2 -25 -4 0 -21 -30 -9 -31 13 -1 17 -3 15 -10 -10 -5 -18 -14 -33 -19 -33 -6
0 -10 -7 -10 -15 0 -45 -79 -155 -111 -155 -23 0 -69 -48 -62 -66 3 -9 -2 -14
-16 -14 -15 0 -26 10 -36 33 -23 55 0 171 89 467 30 96 85 281 124 410 39 129
104 348 146 485 41 138 109 360 149 495 67 223 76 245 95 244 12 0 22 3 22 8
0 4 -7 8 -15 8 -23 0 -18 19 8 30 18 7 19 9 4 9 -19 1 -18 13 4 72 l11 27 39
-17 c21 -9 39 -22 39 -30z m2856 -20 c-3 -5 8 -14 24 -21 30 -12 39 -33 20
-45 -29 -18 0 -25 100 -25 61 0 110 -4 110 -9 0 -5 -15 -25 -32 -44 -44 -46
-129 -76 -238 -84 l-89 -6 22 69 c27 84 32 93 55 89 9 -1 11 0 5 2 -13 4 -18
23 -7 23 15 0 44 -22 39 -31 -4 -5 -1 -9 4 -9 23 0 9 28 -19 40 -34 14 -39 34
-12 49 21 13 25 13 18 2z m-11241 -38 c19 -9 35 -20 35 -25 0 -11 -7 -10 -40
7 -17 9 -30 12 -30 7 0 -4 17 -16 38 -25 30 -13 68 -17 161 -17 116 0 122 -1
116 -19 -3 -11 -25 -84 -49 -163 -111 -365 -211 -694 -246 -808 -21 -69 -50
-165 -65 -215 -101 -337 -186 -595 -196 -595 -6 0 -7 6 -3 13 5 8 2 8 -9 -2
-18 -14 -24 -26 -8 -17 15 10 18 -28 4 -59 l-13 -30 3 30 c2 25 -2 31 -23 34
-14 1 -28 8 -32 15 -5 6 -6 -5 -3 -24 4 -23 3 -29 -3 -16 -7 15 -13 8 -35 -41
-15 -33 -27 -65 -27 -71 0 -6 -15 -27 -34 -46 -23 -25 -42 -36 -62 -36 -32 0
-74 -35 -74 -62 0 -22 -18 -23 -42 -1 -13 12 -18 31 -18 72 0 92 30 203 268
991 283 936 311 1026 328 1065 10 22 17 43 16 48 -3 10 3 9 43 -10z m14495
-60 c0 -4 -15 -56 -34 -117 -19 -61 -42 -140 -52 -175 -24 -90 -31 -61 -33
137 l-2 162 61 0 c33 0 60 -3 60 -7z"/>
<path d="M1914 7948 c-10 -41 -9 -39 -18 -63 -33 -87 -117 -364 -119 -394 -1
-17 -5 -31 -9 -31 -6 0 -35 -83 -42 -120 -7 -38 -19 -77 -31 -105 -20 -47 -28
-95 -16 -95 12 0 31 41 35 75 2 11 8 29 13 40 6 11 13 34 16 50 2 17 19 76 37
133 17 57 33 111 35 120 2 9 4 19 6 22 1 3 3 10 4 15 1 6 7 21 12 35 6 14 18
54 28 90 9 36 20 72 25 81 4 8 15 44 24 80 9 35 19 72 22 82 3 9 1 17 -5 17
-5 0 -13 -15 -17 -32z"/>
<path d="M1357 5682 c-126 -384 -369 -1159 -580 -1852 -20 -63 -59 -189 -87
-280 -54 -175 -59 -229 -20 -250 39 -21 94 -6 58 16 -8 5 -6 10 8 15 25 10
7054 11 7054 2 0 -17 -17 -28 -44 -30 -37 -3 -54 -19 -38 -35 16 -16 15 -40
-2 -64 -14 -19 -15 -19 -22 1 -4 11 -16 26 -26 33 -15 11 -16 17 -7 28 9 11 8
15 -2 19 -8 3 -1528 4 -3379 3 -3251 -3 -3365 -4 -3363 -21 1 -12 -17 -30 -53
-53 -29 -19 -57 -34 -62 -34 -5 0 -17 -9 -26 -19 -15 -17 -17 -31 -11 -83 8
-83 29 -122 74 -139 30 -12 594 -14 3398 -17 l3361 -2 44 57 c24 32 51 58 58
58 18 0 18 -82 0 -682 -11 -400 -11 -423 6 -452 11 -18 29 -33 47 -37 35 -7
45 1 29 26 -12 20 25 20 4473 20 l4485 0 0 830 0 830 370 0 c350 0 370 -1 370
-18 0 -14 -8 -18 -35 -18 -43 0 -53 -9 -37 -34 14 -23 15 -40 3 -58 -12 -20
-74 38 -65 61 5 15 -6 17 -107 19 -338 7 -359 6 -359 -28 0 -13 -4 -24 -10
-24 -5 0 -20 -10 -32 -22 l-23 -23 -9 28 c-7 19 -17 27 -33 27 l-23 0 0 -738
c0 -725 0 -739 20 -762 24 -27 27 -25 35 20 8 44 15 50 29 25 26 -46 74 -85
104 -85 63 0 89 11 105 46 9 18 37 48 62 66 l46 34 -1 532 0 532 74 0 74 0 47
66 c35 49 50 63 59 54 8 -8 12 -195 14 -673 3 -701 3 -701 50 -719 19 -6 25
-4 29 12 5 20 12 20 4239 20 l4234 0 0 726 c0 688 1 726 18 718 9 -5 209 -11
444 -14 l427 -5 15 70 c8 39 31 153 50 255 19 102 63 327 96 500 139 718 170
879 185 965 9 50 36 193 61 319 42 219 49 265 40 255 -4 -4 -81 -336 -92 -399
-9 -45 -43 -212 -70 -335 -14 -66 -31 -154 -39 -195 -8 -41 -16 -82 -19 -90
-3 -8 -10 -44 -15 -80 -6 -36 -20 -108 -31 -160 -12 -52 -30 -138 -40 -190
-41 -215 -59 -307 -69 -350 -9 -39 -21 -103 -72 -380 -6 -30 -13 -65 -15 -77
-2 -12 -14 -32 -26 -43 -21 -19 -34 -20 -423 -20 -449 0 -436 2 -455 -71 -8
-28 -11 -244 -9 -686 1 -489 -1 -647 -10 -656 -9 -9 -952 -13 -4137 -15 -3783
-2 -4129 -1 -4160 14 -19 9 -34 22 -34 30 0 9 -10 11 -33 7 -32 -5 -35 -3 -50
36 -15 37 -17 109 -17 674 0 416 4 646 11 672 16 60 29 186 23 218 -10 49 -28
57 -120 57 -68 0 -84 -3 -84 -15 0 -8 -9 -15 -19 -15 -11 0 -23 -4 -26 -10 -4
-6 -95 -10 -239 -10 -259 0 -297 -7 -318 -58 -8 -19 -10 -245 -9 -782 3 -798
3 -802 -43 -814 -11 -3 -1982 -6 -4379 -6 -3887 0 -4361 2 -4387 15 -17 9 -30
22 -30 30 0 11 -7 14 -24 9 -41 -10 -65 4 -72 41 -8 44 14 919 27 1049 5 55
14 103 21 107 7 4 13 46 16 107 5 117 10 111 -122 120 -64 3 -87 2 -82 -6 4
-7 -8 -17 -30 -27 -32 -13 -399 -15 -3359 -15 -3047 0 -3325 1 -3355 16 -22
12 -28 19 -19 24 7 5 -17 8 -52 7 l-64 -2 -1 35 c-1 19 7 60 17 90 10 30 36
116 59 190 76 248 173 564 205 670 111 364 169 552 208 680 25 80 50 161 55
180 5 19 32 109 60 200 75 247 83 277 81 313 -1 17 2 56 6 85 4 28 6 52 4 52
-2 0 -39 -107 -82 -238z"/>
<path d="M16065 3853 c-11 -3 -32 -16 -46 -29 l-26 -25 -314 1 c-173 1 -330 1
-349 0 -29 0 -40 -7 -64 -41 -23 -33 -31 -38 -37 -26 -12 21 -2 44 22 50 25 7
35 33 19 52 -8 10 -31 15 -71 15 -46 0 -63 -5 -82 -22 -24 -22 -25 -30 -31
-168 -3 -80 -2 -151 2 -157 10 -16 123 5 135 24 6 10 48 13 165 13 l156 0 -47
-48 -47 -48 0 -294 c-1 -244 -3 -298 -15 -314 -17 -22 -20 -103 -5 -126 9 -13
10 -13 10 0 0 27 73 40 220 40 132 0 140 1 140 19 0 11 14 31 32 45 59 45 13
46 -49 0 l-23 -16 0 371 0 371 153 0 c85 0 157 -3 160 -7 4 -3 -1 -16 -10 -27
-10 -12 -11 -15 -3 -8 8 6 27 12 42 12 l28 0 0 122 0 122 32 33 c28 29 30 35
18 48 -16 16 -84 27 -115 18z"/>
<path d="M14354 3822 c-30 -19 -51 -20 -454 -20 -295 -1 -431 -4 -451 -12 -34
-15 -51 -54 -47 -111 3 -39 5 -44 26 -41 13 1 30 8 37 16 14 13 65 11 65 -4 0
-10 -58 -60 -70 -60 -10 0 -13 -72 -9 -245 1 -49 3 -169 4 -265 2 -174 2 -175
-27 -230 -21 -42 -27 -63 -22 -90 6 -34 8 -36 40 -32 19 2 34 8 34 13 0 5 72
9 160 9 141 0 160 2 160 16 0 9 16 31 37 50 29 27 33 35 20 40 -9 3 -30 -5
-50 -20 -19 -14 -39 -26 -45 -26 -9 0 -12 48 -12 170 l0 170 213 -2 c118 -2
211 -7 209 -12 -5 -13 18 -24 39 -19 17 5 19 16 20 99 1 52 2 103 3 115 0 12
16 34 34 49 l34 28 -23 16 c-30 20 -117 21 -143 1 -15 -11 -51 -15 -151 -15
l-131 0 -44 -45 c-24 -25 -48 -45 -52 -45 -4 0 -8 50 -8 110 l0 110 314 0
c266 0 315 -2 326 -15 7 -8 23 -15 36 -15 24 0 24 0 24 118 0 103 3 121 18
135 10 10 24 17 30 17 14 0 15 19 3 38 -4 7 -32 15 -62 18 -43 4 -61 1 -85
-14z"/>
<path d="M18570 3815 c-8 -2 -49 -9 -90 -15 -236 -38 -414 -181 -486 -390 -28
-81 -27 -288 2 -347 15 -32 24 -39 35 -32 8 5 26 9 41 9 22 0 26 -4 21 -17 -3
-10 -3 -15 2 -11 4 4 24 -19 45 -50 72 -109 163 -170 307 -203 171 -40 352
-17 543 67 53 23 90 34 105 30 13 -3 30 -3 39 0 14 5 14 9 -4 34 -11 15 -16
31 -12 35 4 5 2 5 -5 1 -14 -8 -39 31 -34 54 2 8 0 12 -4 8 -7 -7 -35 27 -81
97 -10 16 -14 26 -8 23 6 -4 18 2 28 13 10 12 24 18 33 15 14 -6 14 -4 2 11
-24 33 -42 43 -75 43 -43 0 -114 -64 -114 -103 0 -30 -13 -38 -103 -69 -93
-32 -196 -30 -264 5 -31 16 -54 23 -58 17 -3 -6 -13 -10 -22 -10 -9 0 -21 -7
-28 -16 -10 -14 -14 -13 -37 15 -67 78 -88 228 -47 335 29 78 105 147 191 171
125 36 304 14 394 -47 37 -25 45 -48 15 -48 -10 0 -22 -7 -25 -16 -10 -25 2
-30 18 -8 13 17 18 17 36 6 12 -7 23 -12 24 -10 2 2 33 48 71 103 77 113 124
167 138 158 5 -3 4 4 -2 15 -14 26 -87 55 -108 43 -11 -6 -42 1 -97 21 -132
48 -311 77 -386 63z"/>
<path d="M20028 3800 c-165 -6 -178 -14 -186 -103 -4 -55 11 -85 29 -56 5 8 9
10 9 4 0 -5 4 -4 9 4 6 9 24 14 47 13 44 -2 67 -18 44 -32 -8 -4 -30 -19 -47
-32 l-32 -23 -1 -344 0 -343 -30 -35 c-25 -28 -30 -43 -30 -83 l0 -49 38 6
c20 3 41 10 46 14 6 5 211 9 457 9 394 0 449 -2 463 -16 9 -8 24 -14 34 -12
15 3 17 18 19 123 1 117 2 120 29 143 38 33 23 56 -41 60 -48 3 -105 -13 -105
-29 0 -5 -105 -9 -233 -9 l-233 0 -44 -45 c-24 -25 -48 -45 -52 -45 -4 0 -8
166 -8 369 l0 370 23 3 c15 2 23 11 25 28 4 26 50 72 64 64 4 -3 8 -1 8 5 0
21 -46 39 -105 42 -33 2 -122 2 -197 -1z"/>
<path d="M21680 3795 c-47 -16 -63 -39 -68 -99 -4 -54 -4 -55 19 -51 69 14
129 17 129 7 0 -6 -20 -28 -45 -49 l-45 -37 0 -261 c0 -192 3 -264 12 -273 7
-7 11 -29 9 -49 -3 -35 -2 -35 25 -29 l28 7 -19 -22 c-13 -15 -15 -20 -5 -15
8 3 23 9 32 12 13 5 16 13 12 30 -4 14 -2 24 4 24 13 0 43 -60 36 -71 -3 -5 0
-9 6 -9 6 0 25 -16 42 -36 72 -81 240 -134 430 -134 187 0 319 42 413 131 92
87 95 102 95 470 l0 309 25 10 c15 6 25 17 25 29 0 11 14 31 31 45 75 64 -24
87 -291 69 -75 -5 -87 -9 -113 -34 -25 -25 -28 -35 -25 -81 3 -50 4 -53 28
-50 14 1 27 7 28 12 5 13 82 13 82 0 0 -5 -20 -24 -45 -42 l-44 -33 -1 -245
c0 -217 -2 -247 -18 -266 -32 -40 -82 -58 -177 -62 -85 -4 -114 1 -186 32 -10
4 -25 -3 -42 -20 -24 -24 -27 -25 -28 -8 0 18 -1 18 -8 0 -6 -17 -11 -12 -32
30 -24 48 -24 53 -24 327 0 153 2 282 5 286 3 4 13 10 23 14 9 3 17 14 17 24
0 10 17 32 37 49 l37 31 -25 16 c-19 12 -59 16 -192 19 -94 2 -180 -1 -197 -7z"/>
<path d="M8343 3790 c-31 -12 -43 -41 -43 -99 0 -45 13 -76 22 -51 5 14 104
24 112 11 4 -6 4 -11 -1 -11 -4 0 -26 -16 -48 -35 l-40 -35 -3 -351 c-3 -332
-4 -352 -22 -372 -15 -15 -20 -35 -20 -73 0 -29 5 -56 10 -59 6 -3 10 -1 10 6
0 6 8 9 19 6 12 -3 22 1 25 9 4 12 69 14 373 14 390 0 422 3 512 50 202 103
292 395 196 634 -13 32 -21 66 -18 75 4 14 3 14 -6 1 -6 -9 -11 -10 -11 -3 0
6 -7 19 -16 27 -8 9 -11 16 -5 16 6 0 11 4 11 10 0 5 -6 7 -14 4 -8 -3 -19 3
-25 14 -9 17 -6 19 31 18 23 -1 43 4 45 10 2 5 -17 31 -43 57 -52 53 -160 109
-242 126 -64 13 -776 14 -809 1z m764 -265 c56 -17 129 -85 119 -111 -3 -8 -2
-13 3 -10 11 7 24 -41 16 -54 -4 -6 -15 -10 -25 -10 -47 0 -50 -7 -50 -111 0
-125 -19 -170 -83 -200 -35 -15 -66 -19 -185 -19 l-144 0 -49 -49 c-27 -27
-49 -46 -49 -42 0 3 -1 144 -2 314 l-3 307 200 0 c150 0 214 -4 252 -15z"/>
<path d="M10261 3786 c-14 -8 -28 -22 -32 -32 -10 -25 -11 -96 -1 -111 8 -13
52 -7 52 7 0 14 24 18 49 8 24 -8 23 -9 -22 -41 l-47 -32 0 -358 c0 -344 -1
-360 -20 -384 -22 -28 -29 -117 -10 -128 6 -3 10 -1 10 4 0 6 11 11 24 11 14
0 28 5 31 10 4 6 68 10 161 10 l154 0 0 25 c0 14 3 25 8 25 10 0 66 49 61 54
-5 6 -58 -19 -86 -40 l-23 -16 -2 128 c-1 71 -2 146 -2 166 l-1 38 150 0 150
0 38 -58 c20 -32 37 -62 37 -65 0 -4 20 -33 44 -64 38 -51 76 -114 76 -126 0
-3 -16 -1 -35 3 -61 14 -75 4 -75 -51 0 -26 4 -50 8 -53 5 -3 25 4 45 14 33
18 57 20 207 20 170 0 170 0 170 23 0 13 9 26 22 32 12 6 26 18 32 28 9 14 7
21 -9 33 -36 27 -65 29 -82 4 -12 -17 -17 -19 -24 -9 -7 11 -9 9 -9 -6 0 -17
-3 -16 -25 10 -35 43 -107 158 -93 149 7 -4 8 -3 4 4 -4 7 -14 12 -22 12 -8 0
-14 7 -14 15 0 8 -3 15 -7 15 -8 0 -63 82 -63 94 0 3 7 6 15 6 31 0 108 44
150 86 25 26 50 63 59 91 31 91 14 208 -40 266 -13 15 -20 27 -14 27 6 0 13
-7 16 -15 8 -20 24 -19 24 1 0 8 5 12 10 9 6 -3 10 -2 10 4 0 5 7 11 15 13 27
6 -51 77 -117 108 -35 16 -92 34 -128 39 -102 17 -799 14 -829 -3z m779 -259
c33 -12 87 -74 74 -86 -4 -3 -9 0 -12 8 -2 7 -7 9 -11 5 -3 -5 -26 -20 -51
-34 -42 -23 -56 -25 -205 -28 l-160 -3 -52 -52 -53 -51 0 127 0 127 218 -1
c141 0 229 -4 252 -12z"/>
<path d="M12178 3785 c-29 -16 -42 -56 -36 -116 3 -30 6 -34 28 -30 14 1 27 6
30 10 7 9 67 14 80 6 5 -3 -11 -25 -35 -49 l-45 -43 0 -337 0 -338 -30 -35
c-30 -33 -40 -86 -24 -126 6 -17 37 -12 69 10 14 9 63 13 187 13 153 0 168 2
168 18 0 9 16 33 36 52 33 33 34 35 15 44 -16 7 -29 1 -63 -30 l-43 -38 -3
419 c-1 231 0 425 2 432 3 6 15 13 28 15 13 2 24 11 27 23 2 11 16 33 32 49
16 17 29 33 29 38 0 22 -52 28 -232 28 -150 -1 -199 -4 -220 -15z"/>
<path d="M23675 3791 c-34 -14 -47 -37 -48 -88 l-2 -48 68 3 c81 4 85 -6 22
-50 l-45 -32 0 -349 c0 -332 -1 -350 -20 -374 -26 -34 -36 -89 -20 -118 11
-20 16 -22 34 -13 11 6 29 15 38 20 10 4 190 8 400 8 405 0 437 3 526 49 46
24 94 82 113 138 12 38 8 122 -8 163 -6 14 -11 29 -11 34 0 5 -4 12 -9 15 -4
3 -17 17 -28 30 l-20 24 22 -11 c12 -7 24 -17 26 -24 3 -8 6 -5 6 6 1 10 11
27 23 38 19 16 20 21 8 29 -13 8 -54 8 -85 -1 -5 -1 -27 -2 -47 -1 l-36 1 57
58 c42 41 63 72 75 109 16 48 16 56 1 110 -9 32 -16 63 -17 70 -1 7 -7 14 -14
17 -24 9 -3 36 27 36 34 0 38 14 9 32 -11 7 -20 18 -20 25 0 16 -55 56 -110
79 -42 18 -78 19 -470 21 -234 1 -434 -2 -445 -6z m778 -262 c21 -10 57 -52
40 -47 -9 3 -65 -32 -75 -47 -4 -5 -80 -11 -177 -13 l-169 -4 -38 -39 c-21
-22 -42 -39 -46 -39 -4 0 -8 45 -8 100 l0 100 225 0 c138 0 233 -4 248 -11z
m4 -384 c37 -16 62 -41 63 -62 0 -7 -6 -13 -13 -13 -27 0 -67 -26 -67 -42 0
-17 -15 -18 -177 -18 l-177 0 -51 -50 -50 -49 -2 124 -2 125 220 0 c173 0 227
-3 256 -15z"/>
</g>
</svg>
